<?xml version="1.0" encoding="UTF-8" standalone="no"?>
<!-- Created with Inkscape (http://www.inkscape.org/) -->

<svg
   width="327.41241mm"
   height="172.84813mm"
   viewBox="0 0 327.41241 172.84813"
   version="1.1"
   id="svg5"
   inkscape:version="1.2.2 (732a01da63, 2022-12-09)"
   sodipodi:docname="proyectos.svg"
   xml:space="preserve"
   xmlns:inkscape="http://www.inkscape.org/namespaces/inkscape"
   xmlns:sodipodi="http://sodipodi.sourceforge.net/DTD/sodipodi-0.dtd"
   xmlns="http://www.w3.org/2000/svg"
   xmlns:svg="http://www.w3.org/2000/svg"><sodipodi:namedview
     id="namedview7"
     pagecolor="#ffffff"
     bordercolor="#000000"
     borderopacity="0.25"
     inkscape:showpageshadow="2"
     inkscape:pageopacity="0.0"
     inkscape:pagecheckerboard="0"
     inkscape:deskcolor="#d1d1d1"
     inkscape:document-units="mm"
     showgrid="false"
     inkscape:zoom="2.0913616"
     inkscape:cx="747.12092"
     inkscape:cy="2185.4183"
     inkscape:window-width="1920"
     inkscape:window-height="991"
     inkscape:window-x="-9"
     inkscape:window-y="-9"
     inkscape:window-maximized="1"
     inkscape:current-layer="layer1"
     showguides="false" /><defs
     id="defs2" /><g
     inkscape:label="Capa 1"
     inkscape:groupmode="layer"
     id="layer1"
     transform="translate(-505.81795,-520.81721)"><path
       id="rect840-8-1-1-7"
       style="fill:#303440;stroke-width:0.753784"
       d="M 505.81793,520.8172 H 659.10899 V 693.66536 H 505.81793 Z"
       inkscape:export-filename="CustomTkinter\ejercicio_singup\rect840-8-1-1-7.svg"
       inkscape:export-xdpi="96"
       inkscape:export-ydpi="96" /><path
       id="rect1896-9-1-8-4"
       style="fill:#e3e5f3;stroke-width:0.770298"
       d="M 508.92627,524.49768 H 656.00066 V 689.9848 H 508.92627 Z" /><path
       id="rect1896-9-1-8-4-3"
       style="fill:#e3e5f3;stroke-width:0.189732"
       transform="rotate(90)"
       d="m 684.1842,-833.23035 h 8.92279 v 165.48712 h -8.92279 z" /><g
       id="g9889"
       transform="translate(2.5390707e-8,3.6804733)"><path
         id="rect5479-1"
         style="fill:#2ec27e;fill-opacity:0.443137;stroke-width:0.558513"
         d="M 508.92627,544.63989 H 656.00066 V 659.67207 H 508.92627 Z" /><g
         id="g9862"
         transform="translate(-3.0529162e-5,5.4749446)"><g
           id="rect3339-4-4-7-3-4-4-0-5"><path
             style="color:#000000;fill:#ffffff;stroke-width:0.217852;-inkscape-stroke:none"
             d="m 581.34503,550.06183 h 40.94187 v 6.74482 h -40.94187 z"
             id="path10991" /><path
             style="color:#000000;fill:#ffffff;-inkscape-stroke:none"
             d="m 581.23633,549.95312 v 0.10938 6.85352 h 41.16015 v -6.9629 z m 0.21679,0.2168 h 40.72461 v 6.52735 h -40.72461 z"
             id="path10993" /></g><g
           aria-label="NOMBRE:"
           id="text10038-4-8"
           style="font-weight:bold;font-size:3.91935px;font-family:Montserrat;-inkscape-font-specification:'Montserrat Bold';text-align:center;text-anchor:middle;fill:#2a00ac;stroke:#ffffff;stroke-width:0.254"><path
             d="m 556.28527,554.80603 h -0.70809 l -1.20949,-1.95585 v 1.95585 h -0.67363 v -2.84957 h 0.8784 l 1.03917,1.63243 v -1.63243 h 0.67364 z"
             style="stroke:none"
             id="path10834" /><path
             d="m 559.78359,553.3822 q 0,0.6813 -0.3904,1.08318 -0.39041,0.39998 -1.07935,0.39998 -0.68704,0 -1.07744,-0.39998 -0.39041,-0.40188 -0.39041,-1.08318 0,-0.68703 0.39041,-1.08509 0.3904,-0.39997 1.07744,-0.39997 0.68512,0 1.07744,0.39997 0.39231,0.39806 0.39231,1.08509 z m -0.97409,0.72149 q 0.10717,-0.13014 0.15884,-0.3062 0.0517,-0.17798 0.0517,-0.4172 0,-0.25644 -0.0593,-0.43633 -0.0593,-0.1799 -0.15501,-0.29089 -0.0976,-0.11483 -0.22582,-0.1665 -0.12631,-0.0517 -0.2641,-0.0517 -0.1397,0 -0.2641,0.0498 -0.12248,0.0498 -0.22582,0.16458 -0.0957,0.10717 -0.15693,0.29663 -0.0593,0.18755 -0.0593,0.43633 0,0.25453 0.0574,0.43442 0.0593,0.17798 0.15501,0.29089 0.0957,0.11291 0.22391,0.1665 0.12822,0.0536 0.26984,0.0536 0.14162,0 0.26984,-0.0536 0.12822,-0.0555 0.22391,-0.17032 z"
             style="stroke:none"
             id="path10836" /><path
             d="m 563.33168,554.80603 h -0.73105 v -1.908 l -0.5282,1.23819 h -0.50714 l -0.52819,-1.23819 v 1.908 h -0.69278 v -2.84957 h 0.85353 l 0.64111,1.42957 0.63919,-1.42957 h 0.85353 z"
             style="stroke:none"
             id="path10838" /><path
             d="m 566.49701,553.93336 q 0,0.20669 -0.0842,0.36936 -0.0823,0.16266 -0.22774,0.26983 -0.16841,0.12631 -0.37127,0.1799 -0.20094,0.0536 -0.51097,0.0536 h -1.24393 v -2.84957 h 1.10614 q 0.34448,0 0.50332,0.023 0.16075,0.023 0.31768,0.10143 0.16267,0.0823 0.24113,0.22199 0.0804,0.13779 0.0804,0.31577 0,0.20668 -0.10908,0.36552 -0.10909,0.15693 -0.30812,0.24496 v 0.0153 q 0.27941,0.0555 0.44208,0.22965 0.16458,0.17415 0.16458,0.4593 z m -0.94156,-1.17121 q 0,-0.0708 -0.0364,-0.14162 -0.0344,-0.0708 -0.1244,-0.10525 -0.0804,-0.0306 -0.20094,-0.0325 -0.11865,-0.004 -0.33491,-0.004 h -0.0689 v 0.60283 h 0.11482 q 0.17416,0 0.29664,-0.006 0.12247,-0.006 0.19328,-0.0383 0.0995,-0.044 0.13014,-0.11291 0.0306,-0.0708 0.0306,-0.16267 z m 0.17989,1.15973 q 0,-0.13588 -0.0536,-0.2086 -0.0517,-0.0746 -0.17798,-0.111 -0.0861,-0.0249 -0.23731,-0.0268 -0.15118,-0.002 -0.31577,-0.002 h -0.16075 v 0.71 h 0.0536 q 0.31003,0 0.44399,-0.002 0.13397,-0.002 0.24688,-0.0498 0.11482,-0.0478 0.15692,-0.12631 0.044,-0.0804 0.044,-0.18372 z"
             style="stroke:none"
             id="path10840" /><path
             d="m 568.64232,552.82913 q 0,-0.10717 -0.044,-0.18372 -0.044,-0.0765 -0.15118,-0.12056 -0.0746,-0.0306 -0.17415,-0.0364 -0.0995,-0.008 -0.23157,-0.008 h -0.26601 v 0.76741 h 0.22582 q 0.17607,0 0.29472,-0.0172 0.11865,-0.0172 0.19903,-0.0785 0.0765,-0.0593 0.111,-0.13013 0.0364,-0.0727 0.0364,-0.19329 z m 1.14633,1.9769 h -0.89754 l -0.77699,-1.0449 h -0.33873 v 1.0449 h -0.73105 v -2.84957 h 1.23245 q 0.25262,0 0.43442,0.0287 0.18181,0.0287 0.34065,0.12439 0.16075,0.0957 0.25453,0.24879 0.0957,0.15119 0.0957,0.38084 0,0.31576 -0.14736,0.51479 -0.14545,0.19903 -0.4172,0.33108 z"
             style="stroke:none"
             id="path10842" /><path
             d="m 572.17126,554.80603 h -2.0611 v -2.84957 h 2.0611 v 0.55116 h -1.33005 v 0.49183 h 1.23437 v 0.55116 h -1.23437 v 0.70426 h 1.33005 z"
             style="stroke:none"
             id="path10844" /><path
             d="m 573.57021,553.409 h -0.71574 v -0.75211 h 0.71574 z m 0,1.39703 h -0.71574 v -0.7521 h 0.71574 z"
             style="stroke:none"
             id="path10846" /></g><g
           id="rect3339-4-4-7-3-4-4-0-5-1"><path
             style="color:#000000;fill:#ffffff;stroke-width:0.217852;-inkscape-stroke:none"
             d="m 581.34503,567.3606 h 40.94187 v 6.74482 h -40.94187 z"
             id="path11011" /><path
             style="color:#000000;fill:#ffffff;-inkscape-stroke:none"
             d="m 581.23633,567.25195 v 0.10938 6.85351 h 41.16015 v -6.96289 z m 0.21679,0.2168 h 40.72461 v 6.52734 h -40.72461 z"
             id="path11013" /></g><g
           aria-label="APELLIDO:"
           id="text10038-4-8-2"
           style="font-weight:bold;font-size:3.91935px;font-family:Montserrat;-inkscape-font-specification:'Montserrat Bold';text-align:center;text-anchor:middle;fill:#2a00ac;stroke:#ffffff;stroke-width:0.254"><path
             d="m 553.10844,572.1048 h -0.75976 l -0.19712,-0.57604 h -1.05638 l -0.19712,0.57604 h -0.74062 l 1.05256,-2.84957 h 0.84588 z m -1.13485,-1.09849 -0.35022,-1.02194 -0.35022,1.02194 z"
             style="stroke:none"
             id="path10850" /><path
             d="m 555.86997,570.15469 q 0,0.19138 -0.067,0.3751 -0.067,0.1818 -0.19138,0.30619 -0.17032,0.16841 -0.38083,0.25453 -0.2086,0.0861 -0.52054,0.0861 h -0.45738 v 0.92817 h -0.73488 v -2.84957 h 1.20948 q 0.27176,0 0.45739,0.0478 0.18755,0.0459 0.33108,0.13971 0.17223,0.11291 0.26218,0.28897 0.0919,0.17607 0.0919,0.42294 z m -0.75976,0.0172 q 0,-0.12056 -0.0651,-0.20668 -0.0651,-0.088 -0.15119,-0.12248 -0.11482,-0.0459 -0.22391,-0.0498 -0.10908,-0.006 -0.29089,-0.006 h -0.1263 v 0.85353 h 0.21051 q 0.18754,0 0.30811,-0.023 0.12248,-0.023 0.20477,-0.0919 0.0708,-0.0612 0.10143,-0.14545 0.0325,-0.0861 0.0325,-0.2086 z"
             style="stroke:none"
             id="path10852" /><path
             d="m 558.45161,572.1048 h -2.0611 v -2.84957 h 2.0611 v 0.55116 h -1.33005 v 0.49183 h 1.23437 v 0.55116 h -1.23437 v 0.70426 h 1.33005 z"
             style="stroke:none"
             id="path10854" /><path
             d="m 561.1232,572.1048 h -2.05536 v -2.84957 h 0.73488 v 2.29841 h 1.32048 z"
             style="stroke:none"
             id="path10856" /><path
             d="m 563.62064,572.1048 h -2.05536 v -2.84957 h 0.73487 v 2.29841 h 1.32049 z"
             style="stroke:none"
             id="path10858" /><path
             d="m 565.60328,572.1048 h -1.66879 v -0.50523 h 0.46695 v -1.83911 h -0.46695 v -0.50523 h 1.66879 v 0.50523 h -0.46696 v 1.83911 h 0.46696 z"
             style="stroke:none"
             id="path10860" /><path
             d="m 568.89492,570.68288 q 0,0.39806 -0.18181,0.71383 -0.1818,0.31386 -0.4593,0.48227 -0.20859,0.1263 -0.45738,0.17606 -0.24879,0.0498 -0.58943,0.0498 h -1.00472 v -2.84957 h 1.03342 q 0.3483,0 0.60092,0.0593 0.25261,0.0574 0.42485,0.16458 0.29472,0.17989 0.46313,0.48609 0.17032,0.30429 0.17032,0.71765 z m -0.75976,-0.006 q 0,-0.28132 -0.10334,-0.48035 -0.10143,-0.20094 -0.32342,-0.31385 -0.11291,-0.0555 -0.23157,-0.0746 -0.11673,-0.0211 -0.35404,-0.0211 h -0.18563 v 1.78361 h 0.18563 q 0.26218,0 0.38466,-0.023 0.12248,-0.0249 0.23922,-0.088 0.20094,-0.11483 0.29472,-0.3062 0.0938,-0.19329 0.0938,-0.47653 z"
             style="stroke:none"
             id="path10862" /><path
             d="m 572.22675,570.68097 q 0,0.68129 -0.3904,1.08318 -0.39041,0.39997 -1.07936,0.39997 -0.68703,0 -1.07743,-0.39997 -0.39041,-0.40189 -0.39041,-1.08318 0,-0.68703 0.39041,-1.08509 0.3904,-0.39998 1.07743,-0.39998 0.68512,0 1.07744,0.39998 0.39232,0.39806 0.39232,1.08509 z m -0.9741,0.72148 q 0.10717,-0.13013 0.15884,-0.3062 0.0517,-0.17797 0.0517,-0.41719 0,-0.25644 -0.0593,-0.43634 -0.0593,-0.17989 -0.15501,-0.29089 -0.0976,-0.11482 -0.22583,-0.16649 -0.1263,-0.0517 -0.26409,-0.0517 -0.13971,0 -0.2641,0.0498 -0.12248,0.0498 -0.22582,0.16459 -0.0957,0.10717 -0.15693,0.29663 -0.0593,0.18754 -0.0593,0.43633 0,0.25453 0.0574,0.43442 0.0593,0.17798 0.15501,0.29089 0.0957,0.11291 0.22391,0.1665 0.12822,0.0536 0.26984,0.0536 0.14161,0 0.26984,-0.0536 0.12822,-0.0555 0.2239,-0.17033 z"
             style="stroke:none"
             id="path10864" /><path
             d="m 573.5702,570.70776 h -0.71574 v -0.7521 h 0.71574 z m 0,1.39704 h -0.71574 v -0.7521 h 0.71574 z"
             style="stroke:none"
             id="path10866" /></g><g
           id="rect3339-4-4-7-3-4-4-0-5-1-5"><path
             style="color:#000000;fill:#ffffff;stroke-width:0.217852;-inkscape-stroke:none"
             d="m 581.34503,584.6593 h 40.94187 v 6.74482 h -40.94187 z"
             id="path11035" /><path
             style="color:#000000;fill:#ffffff;-inkscape-stroke:none"
             d="m 581.23633,584.55078 v 0.10938 6.85351 h 41.16015 v -6.96289 z m 0.21679,0.2168 h 40.72461 v 6.52734 h -40.72461 z"
             id="path11037" /></g><g
           aria-label="CORREO:"
           id="text10038-4-8-2-4"
           style="font-weight:bold;font-size:3.91935px;font-family:Montserrat;-inkscape-font-specification:'Montserrat Bold';text-align:center;text-anchor:middle;fill:#2a00ac;stroke:#ffffff;stroke-width:0.254"><path
             d="m 555.76661,589.459 q -0.31768,0 -0.58752,-0.0938 -0.26792,-0.0938 -0.46121,-0.27941 -0.19329,-0.18563 -0.30046,-0.46312 -0.10525,-0.2775 -0.10525,-0.64111 0,-0.33873 0.10143,-0.61431 0.10142,-0.27558 0.29471,-0.4727 0.18564,-0.18946 0.4593,-0.2928 0.27558,-0.10334 0.60092,-0.10334 0.17989,0 0.32342,0.0211 0.14544,0.0191 0.26792,0.0517 0.12823,0.0364 0.23157,0.0823 0.10525,0.044 0.18372,0.0823 v 0.69086 h -0.0842 q -0.0536,-0.0459 -0.13587,-0.10908 -0.0804,-0.0631 -0.18372,-0.12439 -0.10526,-0.0612 -0.22774,-0.10334 -0.12248,-0.0421 -0.26218,-0.0421 -0.15502,0 -0.29472,0.0498 -0.1397,0.0478 -0.25835,0.16076 -0.11292,0.10908 -0.18372,0.28897 -0.0689,0.17989 -0.0689,0.43633 0,0.26793 0.0746,0.44782 0.0765,0.17989 0.19137,0.28324 0.11674,0.10525 0.26027,0.15118 0.14353,0.044 0.28324,0.044 0.13396,0 0.26409,-0.0402 0.13205,-0.0402 0.24305,-0.10908 0.0938,-0.0555 0.17415,-0.11866 0.0804,-0.0632 0.13205,-0.10908 h 0.0765 v 0.68129 q -0.10717,0.0479 -0.20477,0.09 -0.0976,0.0421 -0.20477,0.0727 -0.13971,0.0402 -0.26219,0.0612 -0.12248,0.021 -0.33682,0.021 z"
             style="stroke:none"
             id="path10870" /><path
             d="m 560.08594,587.97968 q 0,0.68129 -0.39041,1.08318 -0.3904,0.39997 -1.07935,0.39997 -0.68703,0 -1.07744,-0.39997 -0.3904,-0.40189 -0.3904,-1.08318 0,-0.68704 0.3904,-1.0851 0.39041,-0.39997 1.07744,-0.39997 0.68512,0 1.07744,0.39997 0.39232,0.39806 0.39232,1.0851 z m -0.9741,0.72148 q 0.10717,-0.13014 0.15884,-0.3062 0.0517,-0.17798 0.0517,-0.4172 0,-0.25644 -0.0593,-0.43633 -0.0593,-0.17989 -0.15502,-0.29089 -0.0976,-0.11482 -0.22582,-0.1665 -0.12631,-0.0517 -0.2641,-0.0517 -0.1397,0 -0.26409,0.0498 -0.12248,0.0498 -0.22583,0.16458 -0.0957,0.10717 -0.15692,0.29663 -0.0593,0.18755 -0.0593,0.43634 0,0.25453 0.0574,0.43442 0.0593,0.17798 0.15502,0.29089 0.0957,0.11291 0.22391,0.16649 0.12822,0.0536 0.26983,0.0536 0.14162,0 0.26984,-0.0536 0.12822,-0.0555 0.22391,-0.17032 z"
             style="stroke:none"
             id="path10872" /><path
             d="m 562.24464,587.4266 q 0,-0.10716 -0.044,-0.18371 -0.044,-0.0765 -0.15118,-0.12057 -0.0746,-0.0306 -0.17415,-0.0364 -0.0995,-0.008 -0.23157,-0.008 h -0.26601 v 0.76741 h 0.22583 q 0.17606,0 0.29471,-0.0172 0.11865,-0.0172 0.19903,-0.0785 0.0765,-0.0593 0.111,-0.13014 0.0364,-0.0727 0.0364,-0.19329 z m 1.14633,1.9769 h -0.89754 l -0.77698,-1.0449 h -0.33874 v 1.0449 h -0.73105 v -2.84956 h 1.23245 q 0.25262,0 0.43443,0.0287 0.1818,0.0287 0.34064,0.1244 0.16076,0.0957 0.25453,0.24878 0.0957,0.15119 0.0957,0.38084 0,0.31577 -0.14736,0.5148 -0.14545,0.19903 -0.4172,0.33107 z"
             style="stroke:none"
             id="path10874" /><path
             d="m 565.31046,587.4266 q 0,-0.10716 -0.044,-0.18371 -0.044,-0.0765 -0.15118,-0.12057 -0.0746,-0.0306 -0.17415,-0.0364 -0.0995,-0.008 -0.23157,-0.008 h -0.26601 v 0.76741 h 0.22583 q 0.17606,0 0.29471,-0.0172 0.11865,-0.0172 0.19903,-0.0785 0.0765,-0.0593 0.111,-0.13014 0.0364,-0.0727 0.0364,-0.19329 z m 1.14633,1.9769 h -0.89754 l -0.77698,-1.0449 h -0.33874 v 1.0449 h -0.73105 v -2.84956 h 1.23245 q 0.25262,0 0.43442,0.0287 0.18181,0.0287 0.34065,0.1244 0.16076,0.0957 0.25453,0.24878 0.0957,0.15119 0.0957,0.38084 0,0.31577 -0.14736,0.5148 -0.14545,0.19903 -0.4172,0.33107 z"
             style="stroke:none"
             id="path10876" /><path
             d="m 568.83941,589.4035 h -2.06111 v -2.84956 h 2.06111 v 0.55116 h -1.33006 v 0.49183 h 1.23437 v 0.55116 h -1.23437 v 0.70425 h 1.33006 z"
             style="stroke:none"
             id="path10878" /><path
             d="m 572.22673,587.97968 q 0,0.68129 -0.3904,1.08318 -0.3904,0.39997 -1.07935,0.39997 -0.68704,0 -1.07744,-0.39997 -0.3904,-0.40189 -0.3904,-1.08318 0,-0.68704 0.3904,-1.0851 0.3904,-0.39997 1.07744,-0.39997 0.68512,0 1.07744,0.39997 0.39231,0.39806 0.39231,1.0851 z m -0.97409,0.72148 q 0.10717,-0.13014 0.15884,-0.3062 0.0517,-0.17798 0.0517,-0.4172 0,-0.25644 -0.0593,-0.43633 -0.0593,-0.17989 -0.15501,-0.29089 -0.0976,-0.11482 -0.22582,-0.1665 -0.12631,-0.0517 -0.2641,-0.0517 -0.1397,0 -0.26409,0.0498 -0.12248,0.0498 -0.22583,0.16458 -0.0957,0.10717 -0.15692,0.29663 -0.0593,0.18755 -0.0593,0.43634 0,0.25453 0.0574,0.43442 0.0593,0.17798 0.15502,0.29089 0.0957,0.11291 0.2239,0.16649 0.12822,0.0536 0.26984,0.0536 0.14162,0 0.26984,-0.0536 0.12822,-0.0555 0.22391,-0.17032 z"
             style="stroke:none"
             id="path10880" /><path
             d="m 573.57018,588.00647 h -0.71574 v -0.7521 h 0.71574 z m 0,1.39703 h -0.71574 v -0.7521 h 0.71574 z"
             style="stroke:none"
             id="path10882" /></g><g
           id="rect3339-4-4-7-3-4-4-0-5-1-8"><path
             style="color:#000000;fill:#ffffff;stroke-width:0.217852;-inkscape-stroke:none"
             d="m 581.34503,601.95801 h 40.94187 v 6.74482 h -40.94187 z"
             id="path11055" /><path
             style="color:#000000;fill:#ffffff;-inkscape-stroke:none"
             d="m 581.23633,601.84961 v 0.10937 6.85352 h 41.16015 v -6.96289 z m 0.21679,0.2168 h 40.72461 v 6.52734 h -40.72461 z"
             id="path11057" /></g><g
           aria-label="TELÉFONO:"
           id="text10038-4-8-2-6"
           style="font-weight:bold;font-size:3.91935px;font-family:Montserrat;-inkscape-font-specification:'Montserrat Bold';text-align:center;text-anchor:middle;fill:#2a00ac;stroke:#ffffff;stroke-width:0.254"><path
             d="m 551.96214,604.4038 h -0.88989 v 2.29841 h -0.73488 v -2.29841 h -0.88989 v -0.55116 h 2.51466 z"
             style="stroke:none"
             id="path10886" /><path
             d="m 554.46532,606.70221 h -2.0611 v -2.84957 h 2.0611 v 0.55116 h -1.33005 v 0.49183 h 1.23436 v 0.55116 h -1.23436 v 0.70426 h 1.33005 z"
             style="stroke:none"
             id="path10888" /><path
             d="m 557.13691,606.70221 h -2.05536 v -2.84957 h 0.73488 v 2.29841 h 1.32048 z"
             style="stroke:none"
             id="path10890" /><path
             d="m 559.64009,606.70221 h -2.06111 v -2.84957 h 2.06111 v 0.55116 h -1.33005 v 0.49183 h 1.23436 v 0.55116 h -1.23436 v 0.70426 h 1.33005 z m -0.32151,-3.92126 v 0.0383 l -0.67364,0.71383 h -0.47078 l 0.47269,-0.7521 z"
             style="stroke:none"
             id="path10892" /><path
             d="m 562.29828,604.4038 h -1.31092 v 0.53011 h 1.21523 v 0.55116 h -1.21523 v 1.21714 h -0.73105 v -2.84957 h 2.04197 z"
             style="stroke:none"
             id="path10894" /><path
             d="m 565.57653,605.27838 q 0,0.6813 -0.39041,1.08318 -0.3904,0.39998 -1.07935,0.39998 -0.68704,0 -1.07744,-0.39998 -0.3904,-0.40188 -0.3904,-1.08318 0,-0.68703 0.3904,-1.08509 0.3904,-0.39997 1.07744,-0.39997 0.68512,0 1.07744,0.39997 0.39232,0.39806 0.39232,1.08509 z m -0.9741,0.72149 q 0.10717,-0.13014 0.15884,-0.3062 0.0517,-0.17798 0.0517,-0.4172 0,-0.25644 -0.0593,-0.43633 -0.0593,-0.1799 -0.15501,-0.29089 -0.0976,-0.11483 -0.22582,-0.1665 -0.12631,-0.0517 -0.2641,-0.0517 -0.1397,0 -0.26409,0.0498 -0.12248,0.0498 -0.22583,0.16458 -0.0957,0.10717 -0.15692,0.29663 -0.0593,0.18755 -0.0593,0.43633 0,0.25453 0.0574,0.43442 0.0593,0.17798 0.15502,0.29089 0.0957,0.11291 0.2239,0.1665 0.12823,0.0536 0.26984,0.0536 0.14162,0 0.26984,-0.0536 0.12822,-0.0555 0.22391,-0.17032 z"
             style="stroke:none"
             id="path10896" /><path
             d="m 568.72846,606.70221 h -0.70808 l -1.20949,-1.95585 v 1.95585 h -0.67364 v -2.84957 h 0.87841 l 1.03917,1.63243 v -1.63243 h 0.67363 z"
             style="stroke:none"
             id="path10898" /><path
             d="m 572.22679,605.27838 q 0,0.6813 -0.3904,1.08318 -0.39041,0.39998 -1.07936,0.39998 -0.68703,0 -1.07743,-0.39998 -0.39041,-0.40188 -0.39041,-1.08318 0,-0.68703 0.39041,-1.08509 0.3904,-0.39997 1.07743,-0.39997 0.68512,0 1.07744,0.39997 0.39232,0.39806 0.39232,1.08509 z m -0.9741,0.72149 q 0.10717,-0.13014 0.15884,-0.3062 0.0517,-0.17798 0.0517,-0.4172 0,-0.25644 -0.0593,-0.43633 -0.0593,-0.1799 -0.15501,-0.29089 -0.0976,-0.11483 -0.22583,-0.1665 -0.1263,-0.0517 -0.26409,-0.0517 -0.13971,0 -0.2641,0.0498 -0.12248,0.0498 -0.22582,0.16458 -0.0957,0.10717 -0.15693,0.29663 -0.0593,0.18755 -0.0593,0.43633 0,0.25453 0.0574,0.43442 0.0593,0.17798 0.15501,0.29089 0.0957,0.11291 0.22391,0.1665 0.12822,0.0536 0.26984,0.0536 0.14161,0 0.26984,-0.0536 0.12822,-0.0555 0.2239,-0.17032 z"
             style="stroke:none"
             id="path10900" /><path
             d="m 573.57024,605.30518 h -0.71574 v -0.75211 h 0.71574 z m 0,1.39703 h -0.71574 v -0.7521 h 0.71574 z"
             style="stroke:none"
             id="path10902" /></g><g
           id="rect3339-4-4-7-3-4-4-0-5-1-0"><path
             style="color:#000000;fill:#ffffff;stroke-width:0.217852;-inkscape-stroke:none"
             d="m 581.34503,619.25671 h 40.94187 v 6.74482 h -40.94187 z"
             id="path11079" /><path
             style="color:#000000;fill:#ffffff;-inkscape-stroke:none"
             d="m 581.23633,619.14844 v 0.10742 6.85547 h 41.16015 v -6.96289 z m 0.21679,0.21679 h 40.72461 v 6.52735 h -40.72461 z"
             id="path11081" /></g><g
           aria-label="EDAD:"
           id="text10038-4-8-2-45"
           style="font-weight:bold;font-size:3.91935px;font-family:Montserrat;-inkscape-font-specification:'Montserrat Bold';text-align:center;text-anchor:middle;fill:#2a00ac;stroke:#ffffff;stroke-width:0.254"><path
             d="m 562.62168,624.00092 h -2.06111 v -2.84957 h 2.06111 v 0.55116 h -1.33006 v 0.49183 h 1.23437 v 0.55116 h -1.23437 v 0.70426 h 1.33006 z"
             style="stroke:none"
             id="path10906" /><path
             d="m 565.93054,622.579 q 0,0.39806 -0.18181,0.71383 -0.1818,0.31385 -0.45929,0.48226 -0.2086,0.12631 -0.45739,0.17607 -0.24879,0.0498 -0.58943,0.0498 h -1.00472 v -2.84957 h 1.03342 q 0.34831,0 0.60092,0.0593 0.25261,0.0574 0.42485,0.16458 0.29472,0.17989 0.46313,0.48609 0.17032,0.30428 0.17032,0.71765 z m -0.75976,-0.006 q 0,-0.28132 -0.10334,-0.48035 -0.10143,-0.20094 -0.32342,-0.31385 -0.11291,-0.0555 -0.23156,-0.0746 -0.11674,-0.0211 -0.35405,-0.0211 h -0.18563 v 1.78361 h 0.18563 q 0.26219,0 0.38467,-0.023 0.12248,-0.0249 0.23921,-0.088 0.20095,-0.11482 0.29472,-0.3062 0.0938,-0.19328 0.0938,-0.47652 z"
             style="stroke:none"
             id="path10908" /><path
             d="m 569.12458,624.00092 h -0.75976 l -0.19711,-0.57604 h -1.05639 l -0.19711,0.57604 h -0.74062 l 1.05256,-2.84957 h 0.84587 z m -1.13485,-1.09849 -0.35021,-1.02194 -0.35022,1.02194 z"
             style="stroke:none"
             id="path10910" /><path
             d="m 572.22676,622.579 q 0,0.39806 -0.1818,0.71383 -0.18181,0.31385 -0.4593,0.48226 -0.2086,0.12631 -0.45739,0.17607 -0.24878,0.0498 -0.58943,0.0498 h -1.00472 v -2.84957 h 1.03343 q 0.3483,0 0.60091,0.0593 0.25262,0.0574 0.42485,0.16458 0.29472,0.17989 0.46313,0.48609 0.17032,0.30428 0.17032,0.71765 z m -0.75975,-0.006 q 0,-0.28132 -0.10335,-0.48035 -0.10143,-0.20094 -0.32342,-0.31385 -0.11291,-0.0555 -0.23156,-0.0746 -0.11674,-0.0211 -0.35405,-0.0211 H 570.269 v 1.78361 h 0.18563 q 0.26219,0 0.38467,-0.023 0.12248,-0.0249 0.23922,-0.088 0.20094,-0.11482 0.29471,-0.3062 0.0938,-0.19328 0.0938,-0.47652 z"
             style="stroke:none"
             id="path10912" /><path
             d="m 573.57021,622.60388 h -0.71574 v -0.7521 h 0.71574 z m 0,1.39704 h -0.71574 v -0.75211 h 0.71574 z"
             style="stroke:none"
             id="path10914" /></g><g
           id="rect3339-4-4-7-3-4-4-0-5-1-0-9"><path
             style="color:#000000;fill:#ffffff;stroke-width:0.217852;-inkscape-stroke:none"
             d="m 581.34503,636.55542 h 40.94187 v 6.74482 h -40.94187 z"
             id="path11095" /><path
             style="color:#000000;fill:#ffffff;-inkscape-stroke:none"
             d="m 581.23633,636.44727 v 0.10742 6.85351 h 41.16015 v -6.96093 z m 0.21679,0.21679 h 40.72461 v 6.52735 h -40.72461 z"
             id="path11097" /></g><g
           aria-label="CONTRASEÑA:"
           id="text10038-4-8-2-45-0"
           style="font-weight:bold;font-size:3.91935px;font-family:Montserrat;-inkscape-font-specification:'Montserrat Bold';text-align:center;text-anchor:middle;fill:#2a00ac;stroke:#ffffff;stroke-width:0.254"><path
             d="m 543.98561,641.35512 q -0.31768,0 -0.58752,-0.0938 -0.26793,-0.0938 -0.46121,-0.27941 -0.19329,-0.18563 -0.30046,-0.46313 -0.10526,-0.27749 -0.10526,-0.6411 0,-0.33873 0.10143,-0.61431 0.10143,-0.27558 0.29472,-0.4727 0.18563,-0.18946 0.4593,-0.2928 0.27557,-0.10334 0.60091,-0.10334 0.17989,0 0.32342,0.0211 0.14545,0.0191 0.26793,0.0517 0.12822,0.0364 0.23156,0.0823 0.10526,0.044 0.18372,0.0823 v 0.69086 h -0.0842 q -0.0536,-0.0459 -0.13588,-0.10908 -0.0804,-0.0632 -0.18372,-0.12439 -0.10526,-0.0612 -0.22773,-0.10335 -0.12248,-0.0421 -0.26219,-0.0421 -0.15501,0 -0.29471,0.0498 -0.13971,0.0478 -0.25836,0.16075 -0.11291,0.10909 -0.18372,0.28898 -0.0689,0.17989 -0.0689,0.43633 0,0.26793 0.0746,0.44782 0.0765,0.17989 0.19138,0.28323 0.11673,0.10526 0.26027,0.15119 0.14353,0.044 0.28323,0.044 0.13396,0 0.2641,-0.0402 0.13204,-0.0402 0.24304,-0.10909 0.0938,-0.0555 0.17415,-0.11865 0.0804,-0.0632 0.13205,-0.10908 h 0.0765 v 0.68129 q -0.10717,0.0478 -0.20477,0.09 -0.0976,0.0421 -0.20477,0.0727 -0.1397,0.0402 -0.26218,0.0612 -0.12248,0.0211 -0.33682,0.0211 z"
             style="stroke:none"
             id="path10918" /><path
             d="m 548.30493,639.8758 q 0,0.68129 -0.3904,1.08317 -0.39041,0.39998 -1.07936,0.39998 -0.68703,0 -1.07743,-0.39998 -0.39041,-0.40188 -0.39041,-1.08317 0,-0.68704 0.39041,-1.0851 0.3904,-0.39997 1.07743,-0.39997 0.68512,0 1.07744,0.39997 0.39232,0.39806 0.39232,1.0851 z m -0.9741,0.72148 q 0.10717,-0.13014 0.15884,-0.3062 0.0517,-0.17798 0.0517,-0.4172 0,-0.25644 -0.0593,-0.43633 -0.0593,-0.17989 -0.15501,-0.29089 -0.0976,-0.11483 -0.22583,-0.1665 -0.1263,-0.0517 -0.26409,-0.0517 -0.13971,0 -0.2641,0.0498 -0.12248,0.0498 -0.22582,0.16458 -0.0957,0.10717 -0.15693,0.29663 -0.0593,0.18755 -0.0593,0.43634 0,0.25452 0.0574,0.43442 0.0593,0.17797 0.15501,0.29088 0.0957,0.11292 0.22391,0.1665 0.12822,0.0536 0.26984,0.0536 0.14161,0 0.26984,-0.0536 0.12822,-0.0555 0.2239,-0.17032 z"
             style="stroke:none"
             id="path10920" /><path
             d="m 551.45687,641.29962 h -0.70809 l -1.20948,-1.95585 v 1.95585 h -0.67364 v -2.84956 h 0.87841 l 1.03916,1.63242 v -1.63242 h 0.67364 z"
             style="stroke:none"
             id="path10922" /><path
             d="m 554.4136,639.00121 h -0.88989 v 2.29841 h -0.73487 v -2.29841 h -0.8899 v -0.55115 h 2.51466 z"
             style="stroke:none"
             id="path10924" /><path
             d="m 556.45366,639.32272 q 0,-0.10717 -0.044,-0.18372 -0.044,-0.0765 -0.15119,-0.12056 -0.0746,-0.0306 -0.17415,-0.0364 -0.0995,-0.008 -0.23156,-0.008 h -0.26601 v 0.76741 h 0.22582 q 0.17607,0 0.29472,-0.0172 0.11865,-0.0172 0.19903,-0.0785 0.0765,-0.0593 0.111,-0.13014 0.0364,-0.0727 0.0364,-0.19329 z m 1.14633,1.9769 h -0.89755 l -0.77698,-1.0449 h -0.33873 v 1.0449 h -0.73105 v -2.84956 h 1.23245 q 0.25262,0 0.43442,0.0287 0.18181,0.0287 0.34065,0.12439 0.16075,0.0957 0.25453,0.24879 0.0957,0.15119 0.0957,0.38084 0,0.31576 -0.14735,0.51479 -0.14545,0.19903 -0.4172,0.33108 z"
             style="stroke:none"
             id="path10926" /><path
             d="m 560.55481,641.29962 h -0.75975 l -0.19712,-0.57604 h -1.05639 l -0.19711,0.57604 h -0.74062 l 1.05256,-2.84956 h 0.84587 z m -1.13485,-1.09849 -0.35021,-1.02194 -0.35022,1.02194 z"
             style="stroke:none"
             id="path10928" /><path
             d="m 563.24554,640.40399 q 0,0.42102 -0.35787,0.68512 -0.35596,0.26218 -0.96836,0.26218 -0.35404,0 -0.61814,-0.0612 -0.26218,-0.0631 -0.49183,-0.15884 v -0.6832 h 0.0804 q 0.22773,0.1818 0.50905,0.2794 0.28324,0.0976 0.54351,0.0976 0.067,0 0.17606,-0.0115 0.10909,-0.0115 0.17798,-0.0383 0.0842,-0.0344 0.13779,-0.0861 0.0555,-0.0517 0.0555,-0.1531 0,-0.0938 -0.0804,-0.16076 -0.0785,-0.0689 -0.23156,-0.10525 -0.16076,-0.0383 -0.34065,-0.0708 -0.17798,-0.0344 -0.3349,-0.0861 -0.35979,-0.11674 -0.51863,-0.31577 -0.15693,-0.20094 -0.15693,-0.49757 0,-0.39806 0.35596,-0.64876 0.35787,-0.25262 0.9186,-0.25262 0.28132,0 0.55498,0.0555 0.27558,0.0536 0.47653,0.13588 v 0.65641 h -0.0785 q -0.17223,-0.13779 -0.42293,-0.22965 -0.24879,-0.0938 -0.50906,-0.0938 -0.0919,0 -0.18372,0.0134 -0.09,0.0115 -0.17415,0.0459 -0.0746,0.0287 -0.12822,0.088 -0.0536,0.0574 -0.0536,0.13205 0,0.11291 0.0861,0.17415 0.0861,0.0593 0.32534,0.10908 0.15693,0.0325 0.30046,0.0631 0.14544,0.0306 0.31194,0.0842 0.32725,0.10717 0.48226,0.2928 0.15693,0.18372 0.15693,0.47844 z"
             style="stroke:none"
             id="path10930" /><path
             d="m 565.80996,641.29962 h -2.06111 v -2.84956 h 2.06111 v 0.55115 h -1.33006 v 0.49184 h 1.23437 v 0.55115 h -1.23437 v 0.70426 h 1.33006 z"
             style="stroke:none"
             id="path10932" /><path
             d="m 569.01739,641.29962 h -0.70808 l -1.20949,-1.95585 v 1.95585 h -0.67364 v -2.84956 h 0.87841 l 1.03916,1.63242 v -1.63242 h 0.67364 z m -0.44399,-3.81026 q -0.0191,0.32342 -0.15884,0.48035 -0.13779,0.15501 -0.38657,0.15501 -0.09,0 -0.17224,-0.0344 -0.0804,-0.0364 -0.14736,-0.0765 -0.0593,-0.0364 -0.13205,-0.0727 -0.0708,-0.0383 -0.11865,-0.0383 -0.0938,0 -0.12631,0.0612 -0.0306,0.0612 -0.0364,0.17224 h -0.41911 q 0.0115,-0.28897 0.15884,-0.46121 0.14928,-0.17224 0.38467,-0.17224 0.0919,0 0.17415,0.0344 0.0823,0.0325 0.15118,0.0727 0.0708,0.0383 0.13205,0.0727 0.0612,0.0325 0.11291,0.0325 0.0919,0 0.12631,-0.0612 0.0344,-0.0612 0.0383,-0.16458 z"
             style="stroke:none"
             id="path10934" /><path
             d="m 572.37793,641.29962 h -0.75976 l -0.19711,-0.57604 h -1.05639 l -0.19712,0.57604 h -0.74062 l 1.05256,-2.84956 h 0.84588 z m -1.13485,-1.09849 -0.35022,-1.02194 -0.35021,1.02194 z"
             style="stroke:none"
             id="path10936" /><path
             d="m 573.57019,639.90259 h -0.71574 v -0.7521 h 0.71574 z m 0,1.39703 h -0.71574 v -0.7521 h 0.71574 z"
             style="stroke:none"
             id="path10938" /></g></g></g><g
       id="g9867"
       transform="translate(2.5390707e-8,3.6804847)"><g
         aria-label="SING UP"
         id="text10038-4-8-7"
         style="font-weight:bold;font-size:6.33412px;line-height:0.7;font-family:Montserrat;-inkscape-font-specification:'Montserrat Bold';text-align:center;text-anchor:middle;fill:#2a00ac;stroke:#ffffff;stroke-width:0.410492"><path
           d="m 571.49164,533.58063 q 0,0.68042 -0.57836,1.10723 -0.57527,0.42372 -1.56497,0.42372 -0.57218,0 -0.99899,-0.099 -0.42372,-0.10206 -0.79486,-0.2567 v -1.10414 h 0.1299 q 0.36805,0.29381 0.8227,0.45155 0.45774,0.15773 0.87836,0.15773 0.10825,0 0.28454,-0.0186 0.17629,-0.0186 0.28764,-0.0619 0.13608,-0.0557 0.22268,-0.13918 0.0897,-0.0835 0.0897,-0.24742 0,-0.15155 -0.1299,-0.2598 -0.1268,-0.11134 -0.37423,-0.17011 -0.2598,-0.0619 -0.55052,-0.11443 -0.28764,-0.0557 -0.54125,-0.13918 -0.58145,-0.18866 -0.83816,-0.51032 -0.25361,-0.32474 -0.25361,-0.80413 0,-0.64331 0.57527,-1.04847 0.57836,-0.40826 1.48456,-0.40826 0.45464,0 0.89692,0.0897 0.44537,0.0866 0.77011,0.21959 v 1.06084 h -0.1268 q -0.27836,-0.22269 -0.68352,-0.37114 -0.40207,-0.15155 -0.82269,-0.15155 -0.14846,0 -0.29691,0.0217 -0.14537,0.0186 -0.28145,0.0742 -0.12062,0.0464 -0.20722,0.14227 -0.0866,0.0928 -0.0866,0.2134 0,0.18248 0.13918,0.28145 0.13917,0.0959 0.52578,0.17629 0.25361,0.0526 0.48557,0.10206 0.23506,0.0495 0.50413,0.13609 0.52888,0.1732 0.7794,0.4732 0.25361,0.29691 0.25361,0.77321 z"
           style="text-align:start;text-anchor:start;stroke:none"
           id="path10941" /><path
           d="m 574.79478,535.02808 h -2.69694 v -0.81651 h 0.75465 v -2.97221 h -0.75465 v -0.81651 h 2.69694 v 0.81651 h -0.75465 v 2.97221 h 0.75465 z"
           style="text-align:start;text-anchor:start;stroke:none"
           id="path10943" /><path
           d="m 579.95054,535.02808 h -1.14435 l -1.95467,-3.16088 v 3.16088 h -1.08868 v -4.60523 h 1.41961 l 1.67941,2.63819 v -2.63819 h 1.08868 z"
           style="text-align:start;text-anchor:start;stroke:none"
           id="path10945" /><path
           d="m 585.19907,534.76519 q -0.30928,0.12062 -0.8196,0.24124 -0.51032,0.11752 -1.01754,0.11752 -1.17528,0 -1.84024,-0.63712 -0.66495,-0.64022 -0.66495,-1.76601 0,-1.07321 0.67114,-1.72889 0.67114,-0.65877 1.87116,-0.65877 0.45465,0 0.866,0.0835 0.41134,0.0804 0.91547,0.32475 v 1.0794 h -0.13299 q -0.0866,-0.065 -0.25361,-0.18248 -0.16701,-0.12062 -0.32165,-0.20412 -0.17939,-0.099 -0.42063,-0.17011 -0.23815,-0.0711 -0.50722,-0.0711 -0.31547,0 -0.57218,0.0928 -0.2567,0.0928 -0.46083,0.28454 -0.19485,0.18557 -0.30928,0.4732 -0.11134,0.28454 -0.11134,0.65878 0,0.76393 0.40516,1.16909 0.40516,0.40516 1.19692,0.40516 0.068,0 0.14846,-0.003 0.0835,-0.003 0.15155,-0.009 v -0.90311 h -0.91857 v -0.86909 h 2.12477 z"
           style="text-align:start;text-anchor:start;stroke:none"
           id="path10947" /><path
           d="m 592.46104,533.36104 q 0,0.85362 -0.5196,1.30827 -0.51959,0.45464 -1.53095,0.45464 -1.01135,0 -1.53095,-0.45464 -0.5165,-0.45465 -0.5165,-1.30518 v -2.94128 h 1.19383 v 2.87324 q 0,0.47939 0.20103,0.71444 0.20104,0.23506 0.65259,0.23506 0.44537,0 0.6495,-0.22578 0.20722,-0.22577 0.20722,-0.72372 v -2.87324 h 1.19383 z"
           style="text-align:start;text-anchor:start;stroke:none"
           id="path10949" /><path
           d="m 597.37246,531.87648 q 0,0.30928 -0.10825,0.6062 -0.10825,0.29381 -0.30929,0.49485 -0.27526,0.27217 -0.61547,0.41135 -0.33712,0.13917 -0.84125,0.13917 h -0.73919 v 1.50003 h -1.18764 v -4.60523 h 1.95467 q 0.43918,0 0.73918,0.0773 0.3031,0.0742 0.53506,0.22578 0.27836,0.18247 0.42372,0.46701 0.14846,0.28455 0.14846,0.68352 z m -1.22786,0.0278 q 0,-0.19485 -0.10515,-0.33403 -0.10516,-0.14227 -0.24434,-0.19794 -0.18557,-0.0742 -0.36186,-0.0804 -0.17629,-0.009 -0.47011,-0.009 h -0.20413 v 1.3794 h 0.34022 q 0.30309,0 0.49794,-0.0371 0.19794,-0.0371 0.33093,-0.14846 0.11444,-0.099 0.16392,-0.23506 0.0526,-0.13917 0.0526,-0.33711 z"
           style="text-align:start;text-anchor:start;stroke:none"
           id="path10951" /></g><path
         id="rect5479"
         style="fill:#8e84e5;fill-opacity:0.369369;stroke-width:0.254167"
         d="m 508.92627,520.8172 h 147.07439 v 23.82268 H 508.92627 Z" /></g><path
       id="rect5479-3"
       style="fill:#c3c1ed;stroke-width:0.0626037"
       transform="rotate(90)"
       d="m 675.26141,-833.23035 h 8.92277 v 23.82268 h -8.92277 z" /><path
       id="rect5479-1-2"
       style="fill:#2dc27c;fill-opacity:0.443137;stroke-width:0.137567"
       transform="rotate(90)"
       d="m 675.26141,-809.40765 h 8.92277 v 115.03217 h -8.92277 z" /><g
       id="g9895"
       transform="translate(1.2273865,3.4813232)"><path
         id="rect5479-1-7"
         style="fill:#6b00ac;fill-opacity:0.40991;stroke-width:0.268737"
         d="m 507.69888,659.87122 h 147.07439 v 26.63226 H 507.69888 Z" /><path
         id="rect3339-4-4-7-3-4-4-7"
         style="fill:#2a00ac;stroke-width:0.253799"
         d="m 566.93579,666.62469 h 28.60057 v 13.12527 h -28.60057 z" /><g
         aria-label="ACEPTAR"
         id="text10038-9"
         style="font-weight:bold;font-size:3.91935px;line-height:0.7;font-family:Montserrat;-inkscape-font-specification:'Montserrat Bold';text-align:center;text-anchor:middle;fill:#ffffff;stroke:#ffffff;stroke-width:0.254"><path
           d="m 574.08443,674.61212 h -0.75976 l -0.19711,-0.57604 h -1.05639 l -0.19712,0.57604 h -0.74062 l 1.05256,-2.84956 h 0.84588 z m -1.13485,-1.09849 -0.35022,-1.02194 -0.35021,1.02194 z"
           style="stroke:none"
           id="path10959" /><path
           d="m 575.78192,674.66762 q -0.31768,0 -0.58752,-0.0938 -0.26792,-0.0938 -0.46121,-0.27941 -0.19329,-0.18563 -0.30046,-0.46313 -0.10526,-0.27749 -0.10526,-0.6411 0,-0.33873 0.10143,-0.61431 0.10143,-0.27558 0.29472,-0.4727 0.18563,-0.18946 0.4593,-0.2928 0.27558,-0.10334 0.60091,-0.10334 0.1799,0 0.32343,0.0211 0.14544,0.0191 0.26792,0.0517 0.12822,0.0364 0.23156,0.0823 0.10526,0.044 0.18372,0.0823 v 0.69086 h -0.0842 q -0.0536,-0.0459 -0.13588,-0.10908 -0.0804,-0.0632 -0.18372,-0.12439 -0.10525,-0.0612 -0.22773,-0.10335 -0.12248,-0.0421 -0.26219,-0.0421 -0.15501,0 -0.29471,0.0498 -0.13971,0.0478 -0.25836,0.16075 -0.11291,0.10909 -0.18372,0.28898 -0.0689,0.17989 -0.0689,0.43633 0,0.26793 0.0746,0.44782 0.0765,0.17989 0.19138,0.28323 0.11674,0.10526 0.26027,0.15119 0.14353,0.044 0.28323,0.044 0.13396,0 0.2641,-0.0402 0.13205,-0.0402 0.24304,-0.10909 0.0938,-0.0555 0.17416,-0.11865 0.0804,-0.0632 0.13204,-0.10908 h 0.0765 v 0.68129 q -0.10717,0.0478 -0.20477,0.09 -0.0976,0.0421 -0.20477,0.0727 -0.1397,0.0402 -0.26218,0.0612 -0.12248,0.0211 -0.33682,0.0211 z"
           style="stroke:none"
           id="path10961" /><path
           d="m 579.39124,674.61212 h -2.0611 v -2.84956 h 2.0611 v 0.55115 h -1.33005 v 0.49184 h 1.23437 v 0.55115 h -1.23437 v 0.70426 h 1.33005 z"
           style="stroke:none"
           id="path10963" /><path
           d="m 582.35946,672.66202 q 0,0.19137 -0.067,0.37509 -0.067,0.18181 -0.19137,0.3062 -0.17033,0.16841 -0.38084,0.25453 -0.2086,0.0861 -0.52054,0.0861 h -0.45738 v 0.92816 h -0.73488 v -2.84956 h 1.20949 q 0.27175,0 0.45738,0.0478 0.18755,0.0459 0.33108,0.1397 0.17224,0.11291 0.26218,0.28898 0.0919,0.17606 0.0919,0.42294 z m -0.75975,0.0172 q 0,-0.12057 -0.0651,-0.20669 -0.0651,-0.088 -0.15119,-0.12248 -0.11482,-0.0459 -0.22391,-0.0497 -0.10908,-0.006 -0.29088,-0.006 h -0.12631 v 0.85353 h 0.21051 q 0.18755,0 0.30811,-0.023 0.12248,-0.023 0.20477,-0.0919 0.0708,-0.0612 0.10143,-0.14544 0.0325,-0.0861 0.0325,-0.2086 z"
           style="stroke:none"
           id="path10965" /><path
           d="m 585.10951,672.31371 h -0.88989 v 2.29841 h -0.73488 v -2.29841 h -0.88989 v -0.55115 h 2.51466 z"
           style="stroke:none"
           id="path10967" /><path
           d="m 588.1849,674.61212 h -0.75975 l -0.19712,-0.57604 h -1.05639 l -0.19711,0.57604 h -0.74062 l 1.05256,-2.84956 h 0.84587 z m -1.13485,-1.09849 -0.35021,-1.02194 -0.35022,1.02194 z"
           style="stroke:none"
           id="path10969" /><path
           d="m 590.19242,672.63522 q 0,-0.10717 -0.044,-0.18372 -0.044,-0.0765 -0.15118,-0.12056 -0.0746,-0.0306 -0.17415,-0.0364 -0.0995,-0.008 -0.23157,-0.008 h -0.26601 v 0.76741 h 0.22583 q 0.17606,0 0.29471,-0.0172 0.11865,-0.0172 0.19903,-0.0785 0.0765,-0.0593 0.111,-0.13014 0.0364,-0.0727 0.0364,-0.19329 z m 1.14633,1.9769 h -0.89754 l -0.77698,-1.0449 h -0.33874 v 1.0449 h -0.73105 v -2.84956 h 1.23245 q 0.25262,0 0.43442,0.0287 0.18181,0.0287 0.34065,0.12439 0.16076,0.0957 0.25453,0.24879 0.0957,0.15119 0.0957,0.38084 0,0.31576 -0.14736,0.51479 -0.14545,0.19903 -0.4172,0.33108 z"
           style="stroke:none"
           id="path10971" /></g></g><path
       id="rect5479-1-7-4"
       style="fill:#b288d6;stroke-width:0.0661925"
       transform="rotate(90)"
       d="m 675.26141,-694.37549 h 8.92277 v 26.63226 h -8.92277 z" /></g></svg>
