<?xml version="1.0" encoding="UTF-8" standalone="no"?>
<!-- Created with Inkscape (http://www.inkscape.org/) -->

<svg
   width="240.10138mm"
   height="124.40565mm"
   viewBox="0 0 240.10138 124.40565"
   version="1.1"
   id="svg5"
   inkscape:version="1.2.2 (732a01da63, 2022-12-09)"
   sodipodi:docname="proyectos.svg"
   xml:space="preserve"
   xmlns:inkscape="http://www.inkscape.org/namespaces/inkscape"
   xmlns:sodipodi="http://sodipodi.sourceforge.net/DTD/sodipodi-0.dtd"
   xmlns="http://www.w3.org/2000/svg"
   xmlns:svg="http://www.w3.org/2000/svg"><sodipodi:namedview
     id="namedview7"
     pagecolor="#ffffff"
     bordercolor="#000000"
     borderopacity="0.25"
     inkscape:showpageshadow="2"
     inkscape:pageopacity="0.0"
     inkscape:pagecheckerboard="0"
     inkscape:deskcolor="#d1d1d1"
     inkscape:document-units="mm"
     showgrid="false"
     inkscape:zoom="0.73940799"
     inkscape:cx="2377.5778"
     inkscape:cy="2378.9302"
     inkscape:window-width="1920"
     inkscape:window-height="1009"
     inkscape:window-x="-8"
     inkscape:window-y="-8"
     inkscape:window-maximized="1"
     inkscape:current-layer="layer1"
     showguides="true" /><defs
     id="defs2" /><g
     inkscape:label="Capa 1"
     inkscape:groupmode="layer"
     id="layer1"
     transform="translate(338.07798,-586.55312)"><path
       id="rect840-8-1-1-8-0"
       style="fill:#303440;stroke-width:0.614784"
       d="m -301.75314,595.98047 h 153.29106 v 114.97836 h -153.29106 z" /><path
       id="rect1896-9-1-8-5-7"
       style="fill:#e3e5f3;stroke-width:0.628253"
       d="m -298.64481,598.42871 h 147.07439 v 110.0818 h -147.07439 z" /><path
       id="rect3339-4-4-7-3-4-4-6-4"
       style="fill:#2a00ac;stroke-width:0.253799"
       d="m -239.4079,675.84192 h 28.60057 v 13.12527 h -28.60057 z" /><g
       aria-label="SUMAR"
       id="text10038-7-8"
       style="font-weight:bold;font-size:3.91935px;line-height:0.7;font-family:Montserrat;-inkscape-font-specification:'Montserrat Bold';text-align:center;text-anchor:middle;fill:#ffffff;stroke:#ffffff;stroke-width:0.254"><path
         d="m -230.54218,682.88067 q 0,0.42103 -0.35787,0.68512 -0.35596,0.26219 -0.96836,0.26219 -0.35404,0 -0.61814,-0.0612 -0.26218,-0.0632 -0.49183,-0.15884 v -0.68321 h 0.0804 q 0.22773,0.18181 0.50905,0.27941 0.28324,0.0976 0.54351,0.0976 0.067,0 0.17606,-0.0115 0.10908,-0.0115 0.17798,-0.0383 0.0842,-0.0344 0.13779,-0.0861 0.0555,-0.0517 0.0555,-0.1531 0,-0.0938 -0.0804,-0.16075 -0.0785,-0.0689 -0.23156,-0.10526 -0.16076,-0.0383 -0.34065,-0.0708 -0.17798,-0.0344 -0.33491,-0.0861 -0.35978,-0.11673 -0.51862,-0.31576 -0.15693,-0.20095 -0.15693,-0.49758 0,-0.39806 0.35596,-0.64876 0.35787,-0.25261 0.9186,-0.25261 0.28132,0 0.55498,0.0555 0.27558,0.0536 0.47653,0.13587 v 0.65642 h -0.0785 q -0.17224,-0.13779 -0.42294,-0.22965 -0.24878,-0.0938 -0.50905,-0.0938 -0.0919,0 -0.18372,0.0134 -0.09,0.0115 -0.17415,0.0459 -0.0746,0.0287 -0.12822,0.088 -0.0536,0.0574 -0.0536,0.13205 0,0.11291 0.0861,0.17415 0.0861,0.0593 0.32534,0.10909 0.15692,0.0325 0.30045,0.0631 0.14545,0.0306 0.31195,0.0842 0.32725,0.10717 0.48226,0.29281 0.15693,0.18372 0.15693,0.47843 z"
         style="stroke:none"
         id="path7297" /><path
         d="m -227.54335,682.7448 q 0,0.52819 -0.3215,0.80951 -0.32151,0.28132 -0.94731,0.28132 -0.62579,0 -0.9473,-0.28132 -0.3196,-0.28132 -0.3196,-0.8076 v -1.81997 h 0.73871 v 1.77787 q 0,0.29663 0.12439,0.44207 0.12439,0.14545 0.4038,0.14545 0.27558,0 0.40189,-0.1397 0.12822,-0.13971 0.12822,-0.44782 v -1.77787 h 0.7387 z"
         style="stroke:none"
         id="path7299" /><path
         d="m -223.86895,683.77631 h -0.73106 v -1.90801 l -0.52819,1.2382 h -0.50714 l -0.5282,-1.2382 v 1.90801 h -0.69277 v -2.84957 h 0.85353 l 0.6411,1.42957 0.63919,-1.42957 h 0.85354 z"
         style="stroke:none"
         id="path7301" /><path
         d="m -220.50842,683.77631 h -0.75975 l -0.19712,-0.57604 h -1.05639 l -0.19711,0.57604 h -0.74062 l 1.05256,-2.84957 h 0.84587 z m -1.13485,-1.09849 -0.35021,-1.02194 -0.35022,1.02194 z"
         style="stroke:none"
         id="path7303" /><path
         d="m -218.5009,681.79941 q 0,-0.10717 -0.044,-0.18372 -0.044,-0.0765 -0.15118,-0.12057 -0.0746,-0.0306 -0.17415,-0.0364 -0.0995,-0.008 -0.23157,-0.008 h -0.26601 v 0.76741 h 0.22583 q 0.17606,0 0.29471,-0.0172 0.11865,-0.0172 0.19903,-0.0785 0.0765,-0.0593 0.111,-0.13013 0.0364,-0.0727 0.0364,-0.19329 z m 1.14633,1.9769 h -0.89754 l -0.77698,-1.04491 h -0.33874 v 1.04491 h -0.73105 v -2.84957 h 1.23245 q 0.25262,0 0.43443,0.0287 0.1818,0.0287 0.34064,0.12439 0.16076,0.0957 0.25453,0.24879 0.0957,0.15118 0.0957,0.38083 0,0.31577 -0.14736,0.5148 -0.14545,0.19903 -0.4172,0.33108 z"
         style="stroke:none"
         id="path7305" /></g><g
       id="rect3339-4-4-7-3-4-4-0-7-8"><path
         style="color:#000000;fill:#ffffff;stroke-width:0.271449;-inkscape-stroke:none"
         d="m -274.82364,620.08142 h 22.91473 v 18.70991 h -22.91473 z"
         id="path7629" /><path
         style="color:#000000;fill:#ffffff;-inkscape-stroke:none"
         d="m -274.95898,619.94531 v 0.13672 18.8457 h 23.18554 v -18.98242 z m 0.27148,0.27149 h 22.64258 v 18.43945 h -22.64258 z"
         id="path7631" /></g><g
       aria-label="NÚMERO"
       id="text10038-4-3-5"
       style="font-weight:bold;font-size:3.91935px;line-height:0.7;font-family:Montserrat;-inkscape-font-specification:'Montserrat Bold';text-align:center;text-anchor:middle;fill:#2a00ac;fill-opacity:0.407862;stroke:#ffffff;stroke-width:0.254"><path
         d="m -270.13998,631.36737 h -0.70808 l -1.20949,-1.95585 v 1.95585 h -0.67364 v -2.84957 h 0.87841 l 1.03917,1.63243 v -1.63243 h 0.67363 z"
         style="stroke:none"
         id="path7283" /><path
         d="m -266.91723,630.33586 q 0,0.5282 -0.32151,0.80952 -0.32151,0.28132 -0.9473,0.28132 -0.6258,0 -0.94731,-0.28132 -0.31959,-0.28132 -0.31959,-0.8076 v -1.81998 h 0.7387 v 1.77787 q 0,0.29663 0.1244,0.44208 0.12439,0.14544 0.4038,0.14544 0.27558,0 0.40188,-0.1397 0.12822,-0.1397 0.12822,-0.44782 v -1.77787 h 0.73871 z m -0.70809,-2.88975 v 0.0383 l -0.67363,0.71383 h -0.47079 l 0.4727,-0.7521 z"
         style="stroke:none"
         id="path7285" /><path
         d="m -263.24284,631.36737 h -0.73105 v -1.908 l -0.52819,1.23819 h -0.50715 l -0.52819,-1.23819 v 1.908 h -0.69278 v -2.84957 h 0.85353 l 0.64111,1.42957 0.63919,-1.42957 h 0.85353 z"
         style="stroke:none"
         id="path7287" /><path
         d="m -260.45451,631.36737 h -2.06111 v -2.84957 h 2.06111 v 0.55116 h -1.33006 v 0.49184 h 1.23437 v 0.55115 h -1.23437 v 0.70426 h 1.33006 z"
         style="stroke:none"
         id="path7289" /><path
         d="m -258.24031,629.39047 q 0,-0.10717 -0.044,-0.18372 -0.044,-0.0766 -0.15118,-0.12056 -0.0746,-0.0306 -0.17415,-0.0364 -0.0995,-0.008 -0.23157,-0.008 h -0.26601 v 0.76741 h 0.22583 q 0.17606,0 0.29471,-0.0172 0.11865,-0.0172 0.19903,-0.0785 0.0765,-0.0593 0.111,-0.13013 0.0364,-0.0727 0.0364,-0.19329 z m 1.14633,1.9769 h -0.89754 l -0.77698,-1.0449 h -0.33874 v 1.0449 h -0.73105 v -2.84957 h 1.23245 q 0.25262,0 0.43442,0.0287 0.18181,0.0287 0.34065,0.12439 0.16076,0.0957 0.25453,0.24879 0.0957,0.15119 0.0957,0.38084 0,0.31576 -0.14736,0.51479 -0.14545,0.19903 -0.4172,0.33108 z"
         style="stroke:none"
         id="path7291" /><path
         d="m -254.00136,629.94354 q 0,0.6813 -0.39041,1.08318 -0.3904,0.39998 -1.07935,0.39998 -0.68704,0 -1.07744,-0.39998 -0.3904,-0.40188 -0.3904,-1.08318 0,-0.68703 0.3904,-1.08509 0.3904,-0.39997 1.07744,-0.39997 0.68512,0 1.07744,0.39997 0.39232,0.39806 0.39232,1.08509 z m -0.9741,0.72149 q 0.10717,-0.13014 0.15884,-0.3062 0.0517,-0.17798 0.0517,-0.4172 0,-0.25644 -0.0593,-0.43633 -0.0593,-0.1799 -0.15502,-0.29089 -0.0976,-0.11483 -0.22582,-0.1665 -0.12631,-0.0517 -0.2641,-0.0517 -0.1397,0 -0.26409,0.0498 -0.12248,0.0498 -0.22583,0.16458 -0.0957,0.10717 -0.15692,0.29663 -0.0593,0.18755 -0.0593,0.43633 0,0.25453 0.0574,0.43442 0.0593,0.17798 0.15502,0.29089 0.0957,0.11291 0.22391,0.1665 0.12822,0.0536 0.26983,0.0536 0.14162,0 0.26984,-0.0536 0.12822,-0.0555 0.22391,-0.17032 z"
         style="stroke:none"
         id="path7293" /></g><g
       id="rect3339-4-4-7-3-4-4-0-7-2-0"><path
         style="color:#000000;fill:#ffffff;stroke-width:0.271449;-inkscape-stroke:none"
         d="m -237.94518,620.08142 h 22.91473 v 18.70991 h -22.91473 z"
         id="path7611" /><path
         style="color:#000000;fill:#ffffff;-inkscape-stroke:none"
         d="m -238.08008,619.94531 v 0.13672 18.8457 h 23.18555 v -18.98242 z m 0.27149,0.27149 h 22.64257 v 18.43945 h -22.64257 z"
         id="path7613" /></g><g
       aria-label="NÚMERO"
       id="text10038-4-3-1-6"
       style="font-weight:bold;font-size:3.91935px;line-height:0.7;font-family:Montserrat;-inkscape-font-specification:'Montserrat Bold';text-align:center;text-anchor:middle;fill:#2a00ac;fill-opacity:0.407862;stroke:#ffffff;stroke-width:0.254"><path
         d="m -233.26151,631.36737 h -0.70809 l -1.20949,-1.95585 v 1.95585 h -0.67363 v -2.84957 h 0.87841 l 1.03916,1.63243 v -1.63243 h 0.67364 z"
         style="stroke:none"
         id="path7269" /><path
         d="m -230.03877,630.33586 q 0,0.5282 -0.32151,0.80952 -0.3215,0.28132 -0.9473,0.28132 -0.62579,0 -0.9473,-0.28132 -0.3196,-0.28132 -0.3196,-0.8076 v -1.81998 h 0.73871 v 1.77787 q 0,0.29663 0.12439,0.44208 0.12439,0.14544 0.4038,0.14544 0.27558,0 0.40189,-0.1397 0.12822,-0.1397 0.12822,-0.44782 v -1.77787 h 0.7387 z m -0.70808,-2.88975 v 0.0383 l -0.67364,0.71383 h -0.47078 l 0.47269,-0.7521 z"
         style="stroke:none"
         id="path7271" /><path
         d="m -226.36438,631.36737 h -0.73105 v -1.908 l -0.52819,1.23819 h -0.50714 l -0.5282,-1.23819 v 1.908 h -0.69277 v -2.84957 h 0.85353 l 0.6411,1.42957 0.63919,-1.42957 h 0.85353 z"
         style="stroke:none"
         id="path7273" /><path
         d="m -223.57605,631.36737 h -2.0611 v -2.84957 h 2.0611 v 0.55116 h -1.33005 v 0.49184 h 1.23436 v 0.55115 h -1.23436 v 0.70426 h 1.33005 z"
         style="stroke:none"
         id="path7275" /><path
         d="m -221.36185,629.39047 q 0,-0.10717 -0.044,-0.18372 -0.044,-0.0766 -0.15119,-0.12056 -0.0746,-0.0306 -0.17415,-0.0364 -0.0995,-0.008 -0.23156,-0.008 h -0.26601 v 0.76741 h 0.22582 q 0.17606,0 0.29472,-0.0172 0.11865,-0.0172 0.19903,-0.0785 0.0765,-0.0593 0.11099,-0.13013 0.0364,-0.0727 0.0364,-0.19329 z m 1.14634,1.9769 h -0.89755 l -0.77698,-1.0449 h -0.33873 v 1.0449 h -0.73105 v -2.84957 h 1.23245 q 0.25261,0 0.43442,0.0287 0.1818,0.0287 0.34065,0.12439 0.16075,0.0957 0.25452,0.24879 0.0957,0.15119 0.0957,0.38084 0,0.31576 -0.14736,0.51479 -0.14544,0.19903 -0.41719,0.33108 z"
         style="stroke:none"
         id="path7277" /><path
         d="m -217.1229,629.94354 q 0,0.6813 -0.3904,1.08318 -0.39041,0.39998 -1.07936,0.39998 -0.68703,0 -1.07744,-0.39998 -0.3904,-0.40188 -0.3904,-1.08318 0,-0.68703 0.3904,-1.08509 0.39041,-0.39997 1.07744,-0.39997 0.68512,0 1.07744,0.39997 0.39232,0.39806 0.39232,1.08509 z m -0.9741,0.72149 q 0.10717,-0.13014 0.15884,-0.3062 0.0517,-0.17798 0.0517,-0.4172 0,-0.25644 -0.0593,-0.43633 -0.0593,-0.1799 -0.15501,-0.29089 -0.0976,-0.11483 -0.22583,-0.1665 -0.1263,-0.0517 -0.26409,-0.0517 -0.13971,0 -0.2641,0.0498 -0.12248,0.0498 -0.22582,0.16458 -0.0957,0.10717 -0.15693,0.29663 -0.0593,0.18755 -0.0593,0.43633 0,0.25453 0.0574,0.43442 0.0593,0.17798 0.15501,0.29089 0.0957,0.11291 0.22391,0.1665 0.12822,0.0536 0.26984,0.0536 0.14161,0 0.26983,-0.0536 0.12823,-0.0555 0.22391,-0.17032 z"
         style="stroke:none"
         id="path7279" /></g><g
       aria-label="RESULTADO"
       id="text10038-4-3-1-2-2"
       style="font-weight:bold;font-size:3.91935px;line-height:0.7;font-family:Montserrat;-inkscape-font-specification:'Montserrat Bold';text-align:center;text-anchor:middle;fill:#2a00ac;stroke:#ffffff;stroke-width:0.254"><path
         d="m -199.60446,629.39047 q 0,-0.10717 -0.044,-0.18372 -0.044,-0.0766 -0.15118,-0.12056 -0.0746,-0.0306 -0.17415,-0.0364 -0.0995,-0.008 -0.23157,-0.008 h -0.26601 v 0.76741 h 0.22582 q 0.17607,0 0.29472,-0.0172 0.11865,-0.0172 0.19903,-0.0785 0.0765,-0.0593 0.111,-0.13013 0.0364,-0.0727 0.0364,-0.19329 z m 1.14633,1.9769 h -0.89754 l -0.77698,-1.0449 h -0.33874 v 1.0449 h -0.73105 v -2.84957 h 1.23245 q 0.25262,0 0.43442,0.0287 0.18181,0.0287 0.34065,0.12439 0.16075,0.0957 0.25453,0.24879 0.0957,0.15119 0.0957,0.38084 0,0.31576 -0.14736,0.51479 -0.14545,0.19903 -0.4172,0.33108 z"
         style="stroke:none"
         id="path7250" /><path
         d="m -196.07552,631.36737 h -2.0611 v -2.84957 h 2.0611 v 0.55116 h -1.33005 v 0.49184 h 1.23437 v 0.55115 h -1.23437 v 0.70426 h 1.33005 z"
         style="stroke:none"
         id="path7252" /><path
         d="m -193.17811,630.47174 q 0,0.42102 -0.35787,0.68512 -0.35595,0.26218 -0.96835,0.26218 -0.35404,0 -0.61814,-0.0612 -0.26218,-0.0631 -0.49183,-0.15884 v -0.68321 h 0.0804 q 0.22774,0.18181 0.50906,0.27941 0.28323,0.0976 0.5435,0.0976 0.067,0 0.17607,-0.0115 0.10908,-0.0115 0.17798,-0.0383 0.0842,-0.0344 0.13779,-0.0861 0.0555,-0.0517 0.0555,-0.1531 0,-0.0938 -0.0804,-0.16076 -0.0785,-0.0689 -0.23157,-0.10525 -0.16075,-0.0383 -0.34064,-0.0708 -0.17798,-0.0344 -0.33491,-0.0861 -0.35978,-0.11674 -0.51862,-0.31577 -0.15693,-0.20094 -0.15693,-0.49757 0,-0.39806 0.35596,-0.64876 0.35787,-0.25262 0.91859,-0.25262 0.28133,0 0.55499,0.0555 0.27558,0.0536 0.47652,0.13588 v 0.65641 h -0.0785 q -0.17224,-0.13779 -0.42294,-0.22965 -0.24878,-0.0938 -0.50905,-0.0938 -0.0919,0 -0.18372,0.0134 -0.09,0.0115 -0.17415,0.0459 -0.0746,0.0287 -0.12823,0.088 -0.0536,0.0574 -0.0536,0.13205 0,0.11291 0.0861,0.17415 0.0861,0.0593 0.32534,0.10908 0.15692,0.0325 0.30045,0.0632 0.14545,0.0306 0.31194,0.0842 0.32725,0.10717 0.48227,0.2928 0.15692,0.18372 0.15692,0.47844 z"
         style="stroke:none"
         id="path7254" /><path
         d="m -190.17927,630.33586 q 0,0.5282 -0.32151,0.80952 -0.32151,0.28132 -0.9473,0.28132 -0.62579,0 -0.9473,-0.28132 -0.3196,-0.28132 -0.3196,-0.8076 v -1.81998 h 0.73871 v 1.77787 q 0,0.29663 0.12439,0.44208 0.12439,0.14544 0.4038,0.14544 0.27558,0 0.40189,-0.1397 0.12822,-0.1397 0.12822,-0.44782 v -1.77787 h 0.7387 z"
         style="stroke:none"
         id="path7256" /><path
         d="m -187.43687,631.36737 h -2.05536 v -2.84957 h 0.73488 v 2.29841 h 1.32048 z"
         style="stroke:none"
         id="path7258" /><path
         d="m -184.76528,629.06896 h -0.88989 v 2.29841 h -0.73488 v -2.29841 h -0.88989 v -0.55116 h 2.51466 z"
         style="stroke:none"
         id="path7260" /><path
         d="m -181.68989,631.36737 h -0.75976 l -0.19712,-0.57604 h -1.05638 l -0.19712,0.57604 h -0.74062 l 1.05256,-2.84957 h 0.84588 z m -1.13486,-1.09849 -0.35021,-1.02194 -0.35022,1.02194 z"
         style="stroke:none"
         id="path7262" /><path
         d="m -178.58771,629.94546 q 0,0.39806 -0.18181,0.71382 -0.1818,0.31386 -0.4593,0.48227 -0.2086,0.12631 -0.45738,0.17606 -0.24879,0.0498 -0.58944,0.0498 h -1.00471 v -2.84957 h 1.03342 q 0.3483,0 0.60092,0.0593 0.25261,0.0574 0.42485,0.16458 0.29471,0.17989 0.46312,0.48609 0.17033,0.30429 0.17033,0.71766 z m -0.75976,-0.006 q 0,-0.28132 -0.10334,-0.48035 -0.10143,-0.20095 -0.32342,-0.31386 -0.11292,-0.0555 -0.23157,-0.0746 -0.11674,-0.021 -0.35404,-0.021 h -0.18563 v 1.78361 h 0.18563 q 0.26218,0 0.38466,-0.023 0.12248,-0.0249 0.23922,-0.088 0.20094,-0.11483 0.29472,-0.3062 0.0938,-0.19329 0.0938,-0.47652 z"
         style="stroke:none"
         id="path7264" /><path
         d="m -175.25588,629.94354 q 0,0.6813 -0.39041,1.08318 -0.3904,0.39998 -1.07935,0.39998 -0.68703,0 -1.07744,-0.39998 -0.3904,-0.40188 -0.3904,-1.08318 0,-0.68703 0.3904,-1.08509 0.39041,-0.39997 1.07744,-0.39997 0.68512,0 1.07744,0.39997 0.39232,0.39806 0.39232,1.08509 z m -0.9741,0.72149 q 0.10717,-0.13014 0.15884,-0.3062 0.0517,-0.17798 0.0517,-0.4172 0,-0.25644 -0.0593,-0.43633 -0.0593,-0.1799 -0.15502,-0.29089 -0.0976,-0.11483 -0.22582,-0.1665 -0.12631,-0.0517 -0.26409,-0.0517 -0.13971,0 -0.2641,0.0498 -0.12248,0.0498 -0.22582,0.16458 -0.0957,0.10717 -0.15693,0.29663 -0.0593,0.18755 -0.0593,0.43633 0,0.25453 0.0574,0.43442 0.0593,0.17798 0.15501,0.29089 0.0957,0.11291 0.22391,0.1665 0.12822,0.0536 0.26984,0.0536 0.14161,0 0.26983,-0.0536 0.12822,-0.0555 0.22391,-0.17032 z"
         style="stroke:none"
         id="path7266" /></g><g
       aria-label="CAMPO DE TEXTO 

CTKENTRY"
       id="text10038-4-3-1-2-5-8"
       style="font-weight:bold;font-size:3.91935px;font-family:Montserrat;-inkscape-font-specification:'Montserrat Bold';text-align:center;text-anchor:middle;fill:#c64600;stroke:#ffffff;stroke-width:0.254"><path
         d="m -138.03289,657.32863 q -0.31768,0 -0.58752,-0.0938 -0.26792,-0.0938 -0.46121,-0.27941 -0.19329,-0.18563 -0.30046,-0.46313 -0.10525,-0.27749 -0.10525,-0.6411 0,-0.33873 0.10142,-0.61431 0.10143,-0.27558 0.29472,-0.4727 0.18563,-0.18946 0.4593,-0.2928 0.27558,-0.10334 0.60092,-0.10334 0.17989,0 0.32342,0.0211 0.14544,0.0191 0.26792,0.0517 0.12822,0.0364 0.23157,0.0823 0.10525,0.044 0.18372,0.0823 v 0.69086 h -0.0842 q -0.0536,-0.0459 -0.13587,-0.10908 -0.0804,-0.0631 -0.18372,-0.12439 -0.10526,-0.0612 -0.22774,-0.10335 -0.12248,-0.0421 -0.26218,-0.0421 -0.15502,0 -0.29472,0.0498 -0.1397,0.0478 -0.25836,0.16075 -0.11291,0.10909 -0.18371,0.28898 -0.0689,0.17989 -0.0689,0.43633 0,0.26793 0.0746,0.44782 0.0765,0.17989 0.19137,0.28323 0.11674,0.10526 0.26027,0.15119 0.14353,0.044 0.28323,0.044 0.13397,0 0.2641,-0.0402 0.13205,-0.0402 0.24305,-0.10909 0.0938,-0.0555 0.17415,-0.11865 0.0804,-0.0632 0.13205,-0.10908 h 0.0765 v 0.68129 q -0.10717,0.0479 -0.20477,0.09 -0.0976,0.0421 -0.20478,0.0727 -0.1397,0.0402 -0.26218,0.0612 -0.12248,0.021 -0.33682,0.021 z"
         style="stroke:none"
         id="path7209" /><path
         d="m -133.85135,657.27313 h -0.75976 l -0.19712,-0.57603 h -1.05638 l -0.19712,0.57603 h -0.74062 l 1.05256,-2.84956 h 0.84588 z m -1.13486,-1.09849 -0.35021,-1.02194 -0.35022,1.02194 z"
         style="stroke:none"
         id="path7211" /><path
         d="m -130.45446,657.27313 h -0.73105 v -1.908 l -0.52819,1.23819 h -0.50714 l -0.5282,-1.23819 v 1.908 h -0.69277 v -2.84956 h 0.85353 l 0.6411,1.42956 0.63919,-1.42956 h 0.85353 z"
         style="stroke:none"
         id="path7213" /><path
         d="m -127.37524,655.32303 q 0,0.19137 -0.067,0.37509 -0.067,0.18181 -0.19138,0.3062 -0.17032,0.16841 -0.38083,0.25453 -0.2086,0.0861 -0.52054,0.0861 h -0.45739 v 0.92816 h -0.73487 v -2.84956 h 1.20948 q 0.27175,0 0.45739,0.0478 0.18755,0.0459 0.33108,0.1397 0.17223,0.11291 0.26218,0.28898 0.0919,0.17606 0.0919,0.42294 z m -0.75976,0.0172 q 0,-0.12057 -0.0651,-0.20668 -0.0651,-0.088 -0.15118,-0.12248 -0.11483,-0.0459 -0.22391,-0.0498 -0.10908,-0.006 -0.29089,-0.006 h -0.12631 v 0.85353 h 0.21052 q 0.18754,0 0.30811,-0.023 0.12248,-0.023 0.20477,-0.0919 0.0708,-0.0612 0.10143,-0.14544 0.0325,-0.0861 0.0325,-0.2086 z"
         style="stroke:none"
         id="path7215" /><path
         d="m -124.0836,655.84931 q 0,0.68129 -0.3904,1.08318 -0.39041,0.39997 -1.07936,0.39997 -0.68703,0 -1.07743,-0.39997 -0.39041,-0.40189 -0.39041,-1.08318 0,-0.68704 0.39041,-1.0851 0.3904,-0.39997 1.07743,-0.39997 0.68512,0 1.07744,0.39997 0.39232,0.39806 0.39232,1.0851 z m -0.9741,0.72148 q 0.10717,-0.13014 0.15884,-0.3062 0.0517,-0.17798 0.0517,-0.4172 0,-0.25644 -0.0593,-0.43633 -0.0593,-0.17989 -0.15501,-0.29089 -0.0976,-0.11483 -0.22583,-0.1665 -0.1263,-0.0517 -0.26409,-0.0517 -0.13971,0 -0.2641,0.0498 -0.12248,0.0498 -0.22582,0.16458 -0.0957,0.10717 -0.15693,0.29663 -0.0593,0.18755 -0.0593,0.43634 0,0.25452 0.0574,0.43442 0.0593,0.17797 0.15501,0.29089 0.0957,0.11291 0.22391,0.16649 0.12822,0.0536 0.26984,0.0536 0.14161,0 0.26984,-0.0536 0.12822,-0.0555 0.2239,-0.17032 z"
         style="stroke:none"
         id="path7217" /><path
         d="m -119.49061,655.85122 q 0,0.39806 -0.18181,0.71383 -0.1818,0.31385 -0.4593,0.48226 -0.20859,0.12631 -0.45738,0.17606 -0.24879,0.0498 -0.58944,0.0498 h -1.00471 v -2.84956 h 1.03342 q 0.3483,0 0.60092,0.0593 0.25261,0.0574 0.42485,0.16458 0.29471,0.1799 0.46312,0.4861 0.17033,0.30428 0.17033,0.71765 z m -0.75976,-0.006 q 0,-0.28132 -0.10334,-0.48035 -0.10143,-0.20094 -0.32342,-0.31386 -0.11292,-0.0555 -0.23157,-0.0746 -0.11674,-0.021 -0.35404,-0.021 h -0.18563 v 1.78361 h 0.18563 q 0.26218,0 0.38466,-0.023 0.12248,-0.0249 0.23922,-0.088 0.20094,-0.11482 0.29472,-0.3062 0.0938,-0.19329 0.0938,-0.47652 z"
         style="stroke:none"
         id="path7219" /><path
         d="m -116.86878,657.27313 h -2.0611 v -2.84956 h 2.0611 v 0.55115 h -1.33005 v 0.49184 h 1.23436 v 0.55116 h -1.23436 v 0.70425 h 1.33005 z"
         style="stroke:none"
         id="path7221" /><path
         d="m -112.68342,654.97472 h -0.88989 v 2.29841 h -0.73488 v -2.29841 h -0.88989 v -0.55115 h 2.51466 z"
         style="stroke:none"
         id="path7223" /><path
         d="m -110.18024,657.27313 h -2.06111 v -2.84956 h 2.06111 v 0.55115 h -1.33005 v 0.49184 h 1.23436 v 0.55116 h -1.23436 v 0.70425 h 1.33005 z"
         style="stroke:none"
         id="path7225" /><path
         d="m -106.98046,657.27313 h -0.8497 l -0.61431,-0.93773 -0.6258,0.93773 h -0.81143 l 1.01046,-1.43531 -0.98941,-1.41425 h 0.84779 l 0.59326,0.88797 0.61049,-0.88797 h 0.81334 l -0.99515,1.38555 z"
         style="stroke:none"
         id="path7227" /><path
         d="m -104.34141,654.97472 h -0.88989 v 2.29841 h -0.73487 v -2.29841 h -0.8899 v -0.55115 h 2.51466 z"
         style="stroke:none"
         id="path7229" /><path
         d="m -101.12823,655.84931 q 0,0.68129 -0.3904,1.08318 -0.3904,0.39997 -1.07935,0.39997 -0.68704,0 -1.07744,-0.39997 -0.39041,-0.40189 -0.39041,-1.08318 0,-0.68704 0.39041,-1.0851 0.3904,-0.39997 1.07744,-0.39997 0.68512,0 1.07744,0.39997 0.39231,0.39806 0.39231,1.0851 z m -0.97409,0.72148 q 0.10717,-0.13014 0.15884,-0.3062 0.0517,-0.17798 0.0517,-0.4172 0,-0.25644 -0.0593,-0.43633 -0.0593,-0.17989 -0.15501,-0.29089 -0.0976,-0.11483 -0.22582,-0.1665 -0.12631,-0.0517 -0.2641,-0.0517 -0.1397,0 -0.2641,0.0498 -0.12248,0.0498 -0.22582,0.16458 -0.0957,0.10717 -0.15692,0.29663 -0.0593,0.18755 -0.0593,0.43634 0,0.25452 0.0574,0.43442 0.0593,0.17797 0.15501,0.29089 0.0957,0.11291 0.22391,0.16649 0.12822,0.0536 0.26984,0.0536 0.14162,0 0.26984,-0.0536 0.12822,-0.0555 0.22391,-0.17032 z"
         style="stroke:none"
         id="path7231" /><g
         id="path7233"><path
           style="color:#000000;-inkscape-font-specification:'Montserrat Italic';stroke:none;-inkscape-stroke:none"
           d="m -128.64023,662.81189 q -0.54159,0 -0.8497,-0.2794 -0.30811,-0.28132 -0.30811,-0.79612 0,-0.39423 0.11865,-0.73488 0.11865,-0.34065 0.34065,-0.59709 0.22008,-0.25261 0.54159,-0.39806 0.32151,-0.14736 0.71765,-0.14736 0.24687,0 0.46695,0.0612 0.22008,0.0593 0.45165,0.18947 l -0.0861,0.42867 h -0.0287 q -0.0632,-0.0632 -0.12822,-0.11673 -0.0632,-0.0555 -0.19137,-0.12057 -0.10526,-0.0555 -0.2507,-0.0919 -0.14545,-0.0383 -0.32151,-0.0383 -0.26793,0 -0.49183,0.11291 -0.22391,0.11099 -0.38849,0.31194 -0.16076,0.1952 -0.25262,0.47461 -0.0919,0.2794 -0.0919,0.59517 0,0.39423 0.20477,0.61431 0.20477,0.21817 0.59135,0.21817 0.18181,0 0.34447,-0.0402 0.16459,-0.0421 0.29855,-0.10526 0.12439,-0.0593 0.22391,-0.12439 0.0995,-0.0651 0.17032,-0.12056 h 0.0268 l -0.0899,0.44016 q -0.20095,0.10142 -0.46313,0.18372 -0.26027,0.0804 -0.55499,0.0804 z"
           id="path7533" /><path
           style="color:#000000;-inkscape-font-specification:'Montserrat Italic';fill:#ffffff;stroke:none;-inkscape-stroke:none"
           d="m -128.08008,659.73242 c -0.27984,0 -0.53723,0.0517 -0.76953,0.1582 -0.22958,0.10387 -0.42507,0.24729 -0.58398,0.42969 h -0.002 c -0.15888,0.18354 -0.27934,0.39769 -0.36328,0.63867 -0.0841,0.24148 -0.12695,0.50179 -0.12695,0.77735 0,0.36853 0.11572,0.67707 0.34961,0.89062 0.23283,0.21114 0.55265,0.3125 0.93555,0.3125 h 0.082 l 0.006,-0.0137 c 0.17462,-0.007 0.34706,-0.0232 0.50586,-0.0723 0.18016,-0.0566 0.34095,-0.12197 0.48242,-0.19336 l 0.0547,-0.0274 0.13282,-0.65234 h -0.22657 l -0.0332,0.0273 c -0.0435,0.0341 -0.0981,0.0714 -0.16211,0.11328 -0.0609,0.0398 -0.13047,0.0798 -0.20898,0.11719 -0.081,0.0382 -0.17242,0.0694 -0.27539,0.0957 -0.0972,0.0239 -0.20134,0.0371 -0.3125,0.0371 -0.23302,0 -0.38889,-0.0621 -0.49805,-0.17773 -0.11075,-0.11903 -0.17187,-0.28651 -0.17187,-0.52734 0,-0.1982 0.0291,-0.38387 0.0859,-0.55665 0.0571,-0.17372 0.13466,-0.31725 0.23047,-0.43359 0.0991,-0.12099 0.21266,-0.2114 0.3457,-0.27734 l 0.002,-0.002 c 0.13108,-0.0661 0.27281,-0.0996 0.43359,-0.0996 0.10817,0 0.2043,0.0128 0.28906,0.0352 h 0.002 c 0.0892,0.0223 0.16369,0.0509 0.22265,0.082 h 0.002 c 0.08,0.0406 0.13542,0.0784 0.16406,0.10352 h 0.002 l 0.002,0.002 c 0.04,0.0329 0.0797,0.07 0.11915,0.10938 l 0.0371,0.0371 h 0.18555 l 0.125,-0.6211 -0.082,-0.0469 c -0.16162,-0.0909 -0.3206,-0.15846 -0.47852,-0.20118 h -0.002 c -0.15799,-0.0437 -0.32559,-0.0644 -0.5,-0.0644 z m 0,0.25391 c 0.15409,0 0.29868,0.0191 0.4336,0.0566 0.10824,0.0292 0.22411,0.084 0.33984,0.14258 l -0.0254,0.13281 c -0.0536,-0.0451 -0.11851,-0.0858 -0.20313,-0.12891 l -0.002,-0.002 c -0.0809,-0.0424 -0.17352,-0.0756 -0.27734,-0.10156 -0.10917,-0.0288 -0.22694,-0.043 -0.35352,-0.043 -0.19646,0 -0.38137,0.0425 -0.54883,0.12695 -0.16493,0.082 -0.30967,0.19917 -0.42968,0.3457 -0.11854,0.14393 -0.21003,0.31681 -0.27539,0.51563 -0.0657,0.19976 -0.0977,0.41193 -0.0977,0.63477 0,0.2848 0.076,0.52676 0.23828,0.70117 h 0.002 c 0.16381,0.17452 0.40199,0.25781 0.6836,0.25781 0.13056,0 0.25586,-0.0155 0.375,-0.0449 0.11648,-0.0298 0.22465,-0.0673 0.32226,-0.11328 0.0675,-0.0322 0.12537,-0.0682 0.1836,-0.10352 l -0.0176,0.0918 c -0.11591,0.0552 -0.24144,0.10747 -0.39063,0.15429 -0.16059,0.0496 -0.33264,0.0762 -0.51757,0.0762 -0.33923,0 -0.5857,-0.0867 -0.76368,-0.24805 -0.17607,-0.16144 -0.26757,-0.38408 -0.26757,-0.70117 0,-0.25008 0.0392,-0.48063 0.11328,-0.69336 0.0743,-0.21321 0.17929,-0.3963 0.3164,-0.55469 0.13453,-0.15441 0.29895,-0.27711 0.49805,-0.36719 0.19638,-0.09 0.41572,-0.13476 0.66406,-0.13476 z"
           id="path7535" /></g><g
         id="path7235"><path
           style="color:#000000;-inkscape-font-specification:'Montserrat Italic';stroke:none;-inkscape-stroke:none"
           d="m -124.56395,660.23408 h -1.0162 l -0.58369,2.52614 h -0.38275 l 0.58369,-2.52614 h -1.0162 l 0.0727,-0.32342 h 2.41514 z"
           id="path7539" /><path
           style="color:#000000;-inkscape-font-specification:'Montserrat Italic';fill:#ffffff;stroke:none;-inkscape-stroke:none"
           d="m -127.00781,659.7832 -0.13086,0.57813 h 1.01562 l -0.58398,2.52539 h 0.64453 l 0.58398,-2.52539 h 1.01563 l 0.0234,-0.0996 0.10742,-0.47852 z m 0.20312,0.25391 h 2.1543 l -0.0156,0.0703 h -1.01562 l -0.58399,2.52539 h -0.12109 l 0.58399,-2.52539 h -1.01758 z"
           id="path7541" /></g><g
         id="path7237"><path
           style="color:#000000;-inkscape-font-specification:'Montserrat Italic';stroke:none;-inkscape-stroke:none"
           d="m -122.44161,662.76022 h -0.44781 l -0.87841,-1.27264 -0.39041,0.33108 -0.21625,0.94156 h -0.38275 l 0.65833,-2.84956 h 0.38275 l -0.34447,1.47932 1.67452,-1.47932 h 0.48227 l -1.56353,1.3645 z"
           id="path7545" /><path
           style="color:#000000;-inkscape-font-specification:'Montserrat Italic';fill:#ffffff;stroke:none;-inkscape-stroke:none"
           d="m -124.19922,659.7832 -0.7168,3.10352 h 0.64258 l 0.23047,-0.99805 0.25,-0.21289 0.83594,1.21094 h 0.75781 l -0.13867,-0.19922 -0.96094,-1.39063 1.73438,-1.51367 h -0.86914 l -1.41407,1.25 0.29102,-1.25 z m 0.20117,0.25391 h 0.12305 l -0.40039,1.71094 1.9375,-1.71094 h 0.0937 l -1.39258,1.2168 0.95313,1.3789 h -0.13868 l -0.91992,-1.33203 -0.53125,0.44922 -0.20312,0.88281 h -0.1211 z"
           id="path7547" /></g><g
         id="path7239"><path
           style="color:#000000;-inkscape-font-specification:'Montserrat Italic';stroke:none;-inkscape-stroke:none"
           d="m -119.51549,659.91066 -0.0746,0.32342 h -1.49846 l -0.18372,0.80377 h 1.49846 l -0.0746,0.32151 h -1.49846 l -0.24879,1.07744 h 1.49846 l -0.0746,0.32342 h -1.87739 l 0.65642,-2.84956 z"
           id="path7551" /><path
           style="color:#000000;-inkscape-font-specification:'Montserrat Italic';fill:#ffffff;stroke:none;-inkscape-stroke:none"
           d="m -121.49414,659.7832 -0.71484,3.10352 h 2.13867 l 0.13281,-0.57617 h -1.5 l 0.19141,-0.82422 h 1.49804 l 0.13477,-0.57617 h -1.5 l 0.12695,-0.54883 h 1.49805 l 0.13281,-0.57813 h -0.16016 z m 0.20312,0.25391 h 1.61524 l -0.0156,0.0703 h -1.49804 l -0.24219,1.05664 h 1.49805 l -0.0156,0.0684 h -1.49805 l -0.30859,1.33203 h 1.49805 l -0.0156,0.0684 h -1.61719 z"
           id="path7553" /></g><g
         id="path7241"><path
           style="color:#000000;-inkscape-font-specification:'Montserrat Italic';stroke:none;-inkscape-stroke:none"
           d="m -117.39506,662.76022 h -0.45164 l -0.7789,-2.54911 -0.58943,2.54911 h -0.35787 l 0.65833,-2.84956 h 0.57029 l 0.71191,2.32711 0.53777,-2.32711 h 0.35787 z"
           id="path7557" /><path
           style="color:#000000;-inkscape-font-specification:'Montserrat Italic';fill:#ffffff;stroke:none;-inkscape-stroke:none"
           d="m -118.64258,659.7207 -0.0137,0.0625 h -0.35938 l -0.71679,3.10352 h 0.61914 l 0.50586,-2.18555 0.66601,2.18555 h 0.64649 l 0.0234,-0.0977 0.69531,-3.00586 h -0.61914 l -0.45508,1.9668 -0.59961,-1.9668 h -0.37305 z m -0.17187,0.31641 h 0.0996 l -0.60157,2.5957 h -0.0977 z m 0.26953,0 h 0.10742 l 0.79297,2.5957 h -0.10742 z m 1.55078,0 h 0.0977 l -0.59961,2.5957 h -0.0977 z"
           id="path7559" /></g><g
         id="path7243"><path
           style="color:#000000;-inkscape-font-specification:'Montserrat Italic';stroke:none;-inkscape-stroke:none"
           d="m -114.02304,660.23408 h -1.0162 l -0.58369,2.52614 h -0.38275 l 0.58369,-2.52614 h -1.0162 l 0.0727,-0.32342 h 2.41515 z"
           id="path7563" /><path
           style="color:#000000;-inkscape-font-specification:'Montserrat Italic';fill:#ffffff;stroke:none;-inkscape-stroke:none"
           d="m -116.4668,659.7832 -0.13086,0.57813 h 1.01563 l -0.58399,2.52539 h 0.64454 l 0.58398,-2.52539 h 1.01562 l 0.0234,-0.0996 0.10742,-0.47852 z m 0.20313,0.25391 h 2.15429 l -0.0156,0.0703 h -1.01563 l -0.58398,2.52539 h -0.12109 l 0.58398,-2.52539 h -1.01758 z"
           id="path7565" /></g><g
         id="path7245"><path
           style="color:#000000;-inkscape-font-specification:'Montserrat Italic';stroke:none;-inkscape-stroke:none"
           d="m -112.26814,660.61874 q 0,-0.10143 -0.0306,-0.17032 -0.0306,-0.0708 -0.0938,-0.12057 -0.0727,-0.0593 -0.17798,-0.0823 -0.10526,-0.023 -0.25835,-0.023 h -0.42868 l -0.25453,1.09849 h 0.40188 q 0.18755,0 0.32534,-0.0344 0.13779,-0.0344 0.2507,-0.12057 0.12631,-0.0957 0.1952,-0.23922 0.0708,-0.14544 0.0708,-0.30811 z m 0.42485,2.14148 h -0.4459 l -0.75019,-1.13868 h -0.54159 l -0.26218,1.13868 h -0.38275 l 0.65642,-2.84956 h 0.77698 q 0.26027,0 0.42293,0.0344 0.16267,0.0325 0.28324,0.12057 0.10717,0.0785 0.16841,0.18946 0.0612,0.111 0.0612,0.27749 0,0.35596 -0.22391,0.6258 -0.22199,0.26792 -0.58369,0.37318 z"
           id="path7569" /><path
           style="color:#000000;-inkscape-font-specification:'Montserrat Italic';fill:#ffffff;stroke:none;-inkscape-stroke:none"
           d="m -113.66992,659.7832 -0.71485,3.10352 h 0.64258 l 0.26172,-1.13867 h 0.37305 l 0.75,1.13867 h 0.75195 l -0.13281,-0.19727 -0.75,-1.125 c 0.19019,-0.081 0.37719,-0.16893 0.50586,-0.32422 0.1668,-0.20101 0.25195,-0.44309 0.25195,-0.70703 0,-0.12655 -0.0224,-0.24233 -0.0762,-0.33984 -0.0498,-0.0903 -0.11992,-0.16809 -0.20508,-0.23047 -0.0963,-0.0704 -0.20788,-0.11777 -0.33203,-0.14258 -0.12186,-0.0258 -0.27011,-0.0371 -0.44922,-0.0371 z m 0.20117,0.25391 h 0.67578 c 0.16792,0 0.30146,0.0112 0.39649,0.0313 l 0.002,0.002 c 0.0927,0.0185 0.168,0.0506 0.23242,0.0977 0.0577,0.0423 0.10101,0.0908 0.13281,0.14844 0.0278,0.0505 0.0449,0.12136 0.0449,0.21679 1e-5,0.21068 -0.0616,0.38615 -0.19335,0.54492 -0.0656,0.0792 -0.17367,0.11089 -0.25977,0.16602 0.0883,-0.0725 0.16313,-0.15804 0.21289,-0.26172 0.036,-0.074 0.0419,-0.15594 0.0547,-0.23633 h 0.0293 v -0.12695 c 1e-5,-0.0804 -0.0132,-0.1556 -0.043,-0.22266 -0.0288,-0.0654 -0.0743,-0.12341 -0.13086,-0.16796 -0.0652,-0.0528 -0.14266,-0.0887 -0.22852,-0.10743 -0.0827,-0.0181 -0.17674,-0.0254 -0.28516,-0.0254 h -0.53125 l -0.3125,1.35157 h 0.5625 c 0.1328,0 0.25048,-0.0109 0.35547,-0.0371 0.0812,-0.0203 0.15197,-0.064 0.22266,-0.10743 -0.0609,0.0302 -0.097,0.0868 -0.16797,0.10743 l -0.16601,0.0488 0.78515,1.17383 h -0.14062 l -0.75,-1.13867 h -0.71094 l -0.26172,1.13867 h -0.12305 z m 0.3125,0.3125 h 0.32812 c 0.0957,0 0.17284,0.007 0.23047,0.0195 0.0539,0.0118 0.0936,0.031 0.125,0.0566 v 0.002 h 0.002 c 0.027,0.0212 0.0426,0.0424 0.0547,0.0703 v 0.002 h 0.002 c 0.011,0.0248 0.0195,0.0643 0.0195,0.11914 0,0.09 -0.0195,0.17175 -0.0586,0.25195 -0.0376,0.0783 -0.0895,0.14131 -0.1582,0.19336 -0.0619,0.0473 -0.12949,0.0807 -0.20508,0.0996 -0.0787,0.0197 -0.1757,0.0293 -0.29297,0.0293 h -0.24218 z"
           id="path7571" /></g><g
         id="path7247"><path
           style="color:#000000;-inkscape-font-specification:'Montserrat Italic';stroke:none;-inkscape-stroke:none"
           d="m -108.83488,659.91066 -1.3645,1.59989 -0.28897,1.24967 h -0.38275 l 0.2794,-1.20948 -0.63536,-1.64008 h 0.40571 l 0.49375,1.28029 1.07744,-1.28029 z"
           id="path7575" /><path
           style="color:#000000;-inkscape-font-specification:'Montserrat Italic';fill:#ffffff;stroke:none;-inkscape-stroke:none"
           d="m -111.41211,659.7832 0.6875,1.77735 -0.30664,1.32617 h 0.64453 l 0.30469,-1.31641 1.52148,-1.78711 h -0.27343 -0.47461 l -0.97657,1.16211 -0.44922,-1.16211 z m 0.36914,0.25391 h 0.13477 l 0.53906,1.40039 1.17773,-1.40039 h 0.082 l -1.20703,1.41406 -0.27343,1.18164 h -0.1211 l 0.25196,-1.09179 z"
           id="path7577" /></g></g><g
       aria-label="ETIQUETA 

CTKLABLE"
       id="text10038-4-3-1-2-5-0-4"
       style="font-weight:bold;font-size:3.91935px;font-family:Montserrat;-inkscape-font-specification:'Montserrat Bold';text-align:center;text-anchor:middle;fill:#c64600;stroke:#ffffff;stroke-width:0.254"><path
         d="m -132.2103,622.85461 h -2.0611 v -2.84956 h 2.0611 v 0.55116 h -1.33005 v 0.49183 h 1.23436 v 0.55116 h -1.23436 v 0.70426 h 1.33005 z"
         style="stroke:none"
         id="path7176" /><path
         d="m -129.36456,620.55621 h -0.88989 v 2.2984 h -0.73488 v -2.2984 h -0.88989 v -0.55116 h 2.51466 z"
         style="stroke:none"
         id="path7178" /><path
         d="m -127.38192,622.85461 h -1.66879 v -0.50522 h 0.46696 v -1.83911 h -0.46696 v -0.50523 h 1.66879 v 0.50523 h -0.46696 v 1.83911 h 0.46696 z"
         style="stroke:none"
         id="path7180" /><path
         d="m -124.98591,622.15227 q 0.10717,-0.13013 0.15884,-0.3062 0.0517,-0.17798 0.0517,-0.4172 0,-0.25644 -0.0593,-0.43633 -0.0593,-0.17989 -0.15501,-0.29089 -0.0976,-0.11482 -0.22582,-0.16649 -0.12631,-0.0517 -0.2641,-0.0517 -0.1397,0 -0.2641,0.0498 -0.12248,0.0498 -0.22582,0.16458 -0.0957,0.10717 -0.15693,0.29663 -0.0593,0.18755 -0.0593,0.43634 0,0.25453 0.0574,0.43442 0.0593,0.17798 0.15501,0.29089 0.0957,0.11291 0.22391,0.16649 0.12822,0.0536 0.26984,0.0536 0.14162,0 0.26984,-0.0536 0.12822,-0.0555 0.22391,-0.17032 z m 0.0785,0.6679 q 0.008,0.18946 0.10334,0.27175 0.0957,0.0823 0.32725,0.0823 0.0785,0 0.18564,-0.0268 0.10717,-0.0268 0.14927,-0.0479 h 0.0727 v 0.50523 q -0.10717,0.0249 -0.23348,0.044 -0.12439,0.0191 -0.38275,0.0191 -0.22773,0 -0.39805,-0.0574 -0.16841,-0.0555 -0.28133,-0.15884 -0.11099,-0.10143 -0.16649,-0.23922 -0.0555,-0.13779 -0.0651,-0.30619 -0.63919,-0.0364 -0.99706,-0.42677 -0.35596,-0.39232 -0.35596,-1.04873 0,-0.68704 0.39041,-1.0851 0.3904,-0.39997 1.07744,-0.39997 0.68512,0 1.07743,0.39997 0.39232,0.39806 0.39232,1.0851 0,0.50714 -0.22965,0.87649 -0.22965,0.36744 -0.66598,0.51289 z"
         style="stroke:none"
         id="path7182" /><path
         d="m -120.95557,621.82311 q 0,0.52819 -0.32151,0.80951 -0.32151,0.28132 -0.9473,0.28132 -0.62579,0 -0.9473,-0.28132 -0.3196,-0.28132 -0.3196,-0.8076 v -1.81997 h 0.73871 v 1.77787 q 0,0.29663 0.12439,0.44207 0.12439,0.14545 0.4038,0.14545 0.27558,0 0.40189,-0.13971 0.12822,-0.1397 0.12822,-0.44781 v -1.77787 h 0.7387 z"
         style="stroke:none"
         id="path7184" /><path
         d="m -118.20743,622.85461 h -2.0611 v -2.84956 h 2.0611 v 0.55116 h -1.33005 v 0.49183 h 1.23436 v 0.55116 h -1.23436 v 0.70426 h 1.33005 z"
         style="stroke:none"
         id="path7186" /><path
         d="m -115.36169,620.55621 h -0.88989 v 2.2984 h -0.73488 v -2.2984 h -0.88989 v -0.55116 h 2.51466 z"
         style="stroke:none"
         id="path7188" /><path
         d="m -112.2863,622.85461 h -0.75976 l -0.19711,-0.57603 h -1.05639 l -0.19712,0.57603 h -0.74062 l 1.05256,-2.84956 h 0.84588 z m -1.13485,-1.09849 -0.35022,-1.02194 -0.35021,1.02194 z"
         style="stroke:none"
         id="path7190" /><g
         id="path7192"><path
           style="color:#000000;-inkscape-font-specification:'Montserrat Italic';stroke:none;-inkscape-stroke:none"
           d="m -131.39122,628.39338 q -0.54159,0 -0.8497,-0.27941 -0.30811,-0.28132 -0.30811,-0.79612 0,-0.39423 0.11865,-0.73488 0.11865,-0.34064 0.34064,-0.59709 0.22009,-0.25261 0.54159,-0.39806 0.32151,-0.14735 0.71766,-0.14735 0.24687,0 0.46695,0.0612 0.22008,0.0593 0.45165,0.18946 l -0.0861,0.42868 h -0.0287 q -0.0631,-0.0632 -0.12822,-0.11674 -0.0631,-0.0555 -0.19137,-0.12057 -0.10526,-0.0555 -0.2507,-0.0919 -0.14545,-0.0383 -0.32151,-0.0383 -0.26793,0 -0.49184,0.11291 -0.2239,0.111 -0.38849,0.31194 -0.16075,0.1952 -0.25261,0.47461 -0.0919,0.2794 -0.0919,0.59517 0,0.39423 0.20477,0.61431 0.20477,0.21817 0.59135,0.21817 0.1818,0 0.34447,-0.0402 0.16458,-0.0421 0.29855,-0.10525 0.12439,-0.0593 0.2239,-0.1244 0.0995,-0.0651 0.17033,-0.12056 h 0.0268 l -0.0899,0.44016 q -0.20094,0.10143 -0.46312,0.18372 -0.26027,0.0804 -0.55499,0.0804 z"
           id="path7461" /><path
           style="color:#000000;-inkscape-font-specification:'Montserrat Italic';fill:#ffffff;stroke:none;-inkscape-stroke:none"
           d="m -130.83008,625.3125 c -0.27984,0 -0.53918,0.0537 -0.77148,0.16016 -0.22894,0.10381 -0.42542,0.24768 -0.58399,0.42968 -0.15887,0.18354 -0.28129,0.3977 -0.36523,0.63868 -0.0841,0.24147 -0.125,0.50178 -0.125,0.77734 0,0.36854 0.11572,0.67512 0.34961,0.88867 v 0.002 c 0.23283,0.21115 0.55265,0.31055 0.93555,0.31055 h 0.0781 l 0.006,-0.0117 c 0.17607,-0.007 0.34782,-0.0248 0.50781,-0.0742 0.18017,-0.0565 0.34096,-0.12 0.48242,-0.1914 l 0.0547,-0.0274 0.13477,-0.65234 h -0.22657 l -0.0351,0.0273 c -0.0435,0.034 -0.0981,0.0714 -0.16211,0.11328 -0.0608,0.0398 -0.13048,0.0778 -0.20899,0.11524 -0.0806,0.0379 -0.17307,0.0715 -0.27539,0.0977 -0.0972,0.0239 -0.20134,0.0371 -0.3125,0.0371 -0.23382,0 -0.38882,-0.0633 -0.49804,-0.17968 -0.11005,-0.11896 -0.16992,-0.28732 -0.16992,-0.52735 0,-0.19819 0.0272,-0.38191 0.084,-0.55468 0.0571,-0.17373 0.13466,-0.31725 0.23047,-0.4336 0.0991,-0.12099 0.21462,-0.21334 0.34765,-0.27929 0.13109,-0.0661 0.27477,-0.0996 0.43555,-0.0996 0.10817,0 0.2043,0.0128 0.28906,0.0351 h 0.002 c 0.0892,0.0223 0.16174,0.049 0.2207,0.0801 l 0.002,0.002 c 0.08,0.0406 0.13751,0.0765 0.16602,0.10157 l 0.002,0.002 v 0.002 c 0.04,0.0329 0.0798,0.0681 0.11914,0.10742 l 0.0371,0.0371 h 0.18555 l 0.125,-0.62109 -0.0801,-0.0449 c -0.16218,-0.0912 -0.32201,-0.15848 -0.48047,-0.20117 -0.15853,-0.0441 -0.32492,-0.0664 -0.5,-0.0664 z m 0,0.25586 c 0.15409,0 0.29673,0.0191 0.43164,0.0566 h 0.002 c 0.10867,0.0293 0.22363,0.0836 0.33984,0.14258 l -0.0273,0.13281 c -0.0537,-0.045 -0.11846,-0.0878 -0.20313,-0.13086 h -0.002 c -0.0805,-0.0423 -0.17212,-0.0756 -0.27539,-0.10156 h -0.002 c -0.10867,-0.0284 -0.22567,-0.043 -0.35156,-0.043 -0.19646,0 -0.38137,0.0425 -0.54883,0.12695 -0.16549,0.082 -0.30933,0.19682 -0.42968,0.34375 -0.11853,0.14393 -0.21003,0.31681 -0.27539,0.51563 -0.0657,0.19975 -0.0977,0.41193 -0.0977,0.63476 0,0.28481 0.076,0.52677 0.23828,0.70118 0.16381,0.17452 0.40198,0.25976 0.68359,0.25976 0.13056,0 0.25586,-0.0155 0.375,-0.0449 h 0.002 c 0.11647,-0.0298 0.2227,-0.0673 0.32031,-0.11328 0.0668,-0.0318 0.12589,-0.0667 0.18359,-0.10156 l -0.0176,0.0898 c -0.11559,0.0549 -0.24201,0.10765 -0.39063,0.1543 -0.16009,0.0492 -0.33138,0.0742 -0.51562,0.0742 -0.33922,0 -0.58765,-0.0847 -0.76563,-0.24609 -0.17692,-0.16154 -0.26562,-0.38331 -0.26562,-0.70117 0,-0.25008 0.0372,-0.48063 0.11132,-0.69336 0.0743,-0.21321 0.1793,-0.39825 0.31641,-0.55664 0.13454,-0.15442 0.29895,-0.27516 0.49805,-0.36524 0.19638,-0.09 0.41766,-0.13476 0.66601,-0.13476 z"
           id="path7463" /></g><g
         id="path7194"><path
           style="color:#000000;-inkscape-font-specification:'Montserrat Italic';stroke:none;-inkscape-stroke:none"
           d="m -127.31494,625.81556 h -1.0162 l -0.58369,2.52614 h -0.38275 l 0.58369,-2.52614 h -1.0162 l 0.0727,-0.32342 h 2.41515 z"
           id="path7467" /><path
           style="color:#000000;-inkscape-font-specification:'Montserrat Italic';fill:#ffffff;stroke:none;-inkscape-stroke:none"
           d="m -129.75977,625.36523 -0.1289,0.57813 h 1.01562 l -0.58398,2.52539 h 0.64258 l 0.58398,-2.52539 h 1.01758 l 0.0215,-0.0996 0.10743,-0.47852 z m 0.20313,0.25391 h 2.15625 l -0.0156,0.0703 h -1.01562 l -0.58398,2.52539 h -0.12305 l 0.58398,-2.52539 h -1.01758 z"
           id="path7469" /></g><g
         id="path7196"><path
           style="color:#000000;-inkscape-font-specification:'Montserrat Italic';stroke:none;-inkscape-stroke:none"
           d="m -125.1926,628.3417 h -0.44781 l -0.87841,-1.27264 -0.39041,0.33108 -0.21625,0.94156 h -0.38275 l 0.65833,-2.84956 h 0.38275 l -0.34448,1.47932 1.67453,-1.47932 h 0.48226 l -1.56353,1.3645 z"
           id="path7473" /><path
           style="color:#000000;-inkscape-font-specification:'Montserrat Italic';fill:#ffffff;stroke:none;-inkscape-stroke:none"
           d="m -126.95117,625.36523 -0.7168,3.10352 h 0.64453 l 0.22852,-1 0.25195,-0.21289 0.83594,1.21289 h 0.75586 l -0.13672,-0.19922 -0.96094,-1.39258 1.73242,-1.51172 h -0.86914 l -1.41211,1.24805 0.29102,-1.24805 z m 0.20312,0.25391 h 0.11914 l -0.39648,1.71094 h 0.002 l 1.9336,-1.71094 h 0.0957 l -1.39258,1.2168 0.95313,1.3789 h -0.14063 l -0.91992,-1.33398 -0.5293,0.44922 -0.20312,0.88476 h -0.1211 z"
           id="path7475" /></g><g
         id="path7198"><path
           style="color:#000000;-inkscape-font-specification:'Montserrat Italic';stroke:none;-inkscape-stroke:none"
           d="m -122.99753,628.3417 h -1.80466 l 0.65832,-2.84956 h 0.38275 l -0.58369,2.52614 h 1.42191 z"
           id="path7479" /><path
           style="color:#000000;-inkscape-font-specification:'Montserrat Italic';fill:#ffffff;stroke:none;-inkscape-stroke:none"
           d="m -124.24414,625.36523 -0.7168,3.10352 h 2.06446 l 0.0234,-0.0977 0.10938,-0.48047 h -1.42188 l 0.58399,-2.52539 z m 0.20117,0.25391 h 0.12305 l -0.58399,2.52539 h 1.42188 l -0.0156,0.0703 h -1.54492 z"
           id="path7481" /></g><g
         id="path7200"><path
           style="color:#000000;-inkscape-font-specification:'Montserrat Italic';stroke:none;-inkscape-stroke:none"
           d="m -120.34125,628.3417 h -0.38467 l -0.0957,-0.80186 h -1.22863 l -0.46695,0.80186 h -0.39997 l 1.69557,-2.84956 h 0.5014 z m -0.52246,-1.11188 -0.17797,-1.4066 -0.82674,1.4066 z"
           id="path7485" /><path
           style="color:#000000;-inkscape-font-specification:'Montserrat Italic';fill:#ffffff;stroke:none;-inkscape-stroke:none"
           d="m -121.29297,625.36523 -1.84766,3.10352 h 0.69727 l 0.4668,-0.80273 h 1.04297 l 0.0957,0.80273 h 0.64258 l -0.0195,-0.14453 -0.39454,-2.95899 z m 0.14453,0.25391 h 0.0781 l -1.01953,1.73828 h 1.37109 l -0.0195,-0.14258 -0.20117,-1.5957 h 0.10742 l 0.3457,2.5957 h -0.12695 l -0.0957,-0.80273 h -1.41407 l -0.46679,0.80273 h -0.10547 z m 0.0273,0.58984 0.11328,0.89454 h -0.63867 z"
           id="path7487" /></g><g
         id="path7202"><path
           style="color:#000000;-inkscape-font-specification:'Montserrat Italic';stroke:none;-inkscape-stroke:none"
           d="m -118.01031,628.11205 q -0.18564,0.1244 -0.38849,0.17798 -0.20286,0.0517 -0.49949,0.0517 h -1.04682 l 0.65642,-2.84956 h 0.81908 q 0.31194,0 0.46312,0.0211 0.1531,0.021 0.27941,0.0976 0.10526,0.0651 0.15693,0.1665 0.0536,0.0995 0.0536,0.22199 0,0.24687 -0.1397,0.43633 -0.1397,0.18946 -0.38658,0.29281 v 0.0153 q 0.22965,0.0517 0.35022,0.19329 0.12248,0.14161 0.12248,0.36361 0,0.24304 -0.12248,0.46121 -0.12057,0.21625 -0.31768,0.35021 z m 0.0823,-2.00751 q 0,-0.0804 -0.0268,-0.13205 -0.0268,-0.0536 -0.0766,-0.088 -0.0804,-0.0536 -0.20095,-0.067 -0.12056,-0.0153 -0.31194,-0.0153 h -0.4325 l -0.19521,0.84588 h 0.49758 q 0.16458,0 0.28706,-0.023 0.12248,-0.0249 0.21434,-0.0765 0.11865,-0.0689 0.1818,-0.1952 0.0632,-0.12822 0.0632,-0.24878 z m -0.0421,1.22288 q 0,-0.10717 -0.0364,-0.17224 -0.0364,-0.067 -0.13013,-0.12439 -0.0766,-0.0478 -0.19712,-0.0632 -0.11865,-0.0153 -0.33107,-0.0153 h -0.57604 l -0.2507,1.07935 h 0.52245 q 0.25453,0 0.41337,-0.0268 0.16075,-0.0287 0.27749,-0.0995 0.15119,-0.0899 0.22965,-0.24496 0.0785,-0.15693 0.0785,-0.33299 z"
           id="path7491" /><path
           style="color:#000000;-inkscape-font-specification:'Montserrat Italic';fill:#ffffff;stroke:none;-inkscape-stroke:none"
           d="m -119.39063,625.36523 -0.71484,3.10352 h 1.20703 c 0.20513,0 0.38166,-0.0166 0.53125,-0.0547 v -0.002 c 0.0961,-0.0254 0.18521,-0.0784 0.27539,-0.125 l 0.008,0.0293 0.14453,-0.0996 c 0.14772,-0.1004 0.26814,-0.23245 0.35742,-0.39258 0.0915,-0.163 0.13867,-0.34008 0.13867,-0.52344 0,-0.17068 -0.05,-0.32625 -0.15234,-0.44531 -0.057,-0.0669 -0.15451,-0.0917 -0.23633,-0.13281 0.0991,-0.0647 0.20929,-0.11865 0.27734,-0.21094 0.10877,-0.14751 0.16602,-0.32318 0.16602,-0.51172 0,-0.10018 -0.0243,-0.19771 -0.0703,-0.2832 -0.0453,-0.0878 -0.11463,-0.16132 -0.20118,-0.21485 h -0.002 c -0.0993,-0.0602 -0.20817,-0.099 -0.32617,-0.11523 -0.11263,-0.0157 -0.26965,-0.0215 -0.48047,-0.0215 z m 0.20313,0.25391 h 0.71875 c 0.2051,0 0.35637,0.007 0.44531,0.0195 0.0861,0.0118 0.16132,0.0381 0.23047,0.0801 0.053,0.0328 0.0858,0.0709 0.10938,0.11719 l 0.002,0.002 c 0.0254,0.0472 0.0391,0.099 0.0391,0.16211 0,0.14062 -0.0377,0.25427 -0.11523,0.35937 -0.0573,0.0777 -0.1517,0.13009 -0.24414,0.1836 0.0427,-0.0439 0.097,-0.0768 0.125,-0.13281 0.0491,-0.0996 0.0762,-0.20213 0.0762,-0.30469 0,-0.067 -0.0114,-0.13156 -0.041,-0.18945 v -0.002 c -0.0271,-0.0536 -0.0678,-0.10064 -0.11718,-0.13476 h -0.002 c -0.0734,-0.0489 -0.16085,-0.0771 -0.25586,-0.0879 h -0.002 c -0.0884,-0.0111 -0.19598,-0.0156 -0.32617,-0.0156 h -0.53321 l -0.2539,1.09961 h 0.6582 c 0.11564,0 0.21875,-0.008 0.31055,-0.0254 h 0.002 c 0.0707,-0.0144 0.13091,-0.0407 0.19141,-0.0684 v 0.16406 l 0.0996,0.0215 c 0.13351,0.03 0.22173,0.0824 0.28125,0.15234 0.0602,0.0696 0.0918,0.15661 0.0918,0.28125 0,0.14069 -0.0337,0.27055 -0.10546,0.39844 -0.071,0.12735 -0.16333,0.22865 -0.27735,0.30664 -7.6e-4,5.2e-4 -10e-4,10e-4 -0.002,0.002 -0.11152,0.0744 -0.22832,0.12639 -0.34766,0.15821 -0.12088,0.0308 -0.27837,0.0488 -0.46875,0.0488 h -0.88867 z m 1.38672,0.48633 -0.01,0.0469 0.01,-0.0234 z m -1.07422,-0.17578 h 0.33008 c 0.1242,0 0.22483,0.005 0.29687,0.0137 h 0.002 c 0.065,0.007 0.11124,0.0247 0.14453,0.0469 0.0151,0.0109 0.025,0.0226 0.0332,0.0391 v 0.002 c 0.005,0.0105 0.0137,0.0347 0.0137,0.0742 0,0.0582 -0.0156,0.12008 -0.0508,0.1914 -0.032,0.064 -0.0724,0.10866 -0.13086,0.14258 -0.0475,0.0264 -0.10577,0.0463 -0.17578,0.0606 -0.0712,0.0132 -0.15868,0.0215 -0.26172,0.0215 h -0.33984 z m -0.4668,0.89648 -0.31054,1.33203 h 0.68359 c 0.17414,0 0.31673,-0.008 0.43359,-0.0273 h 0.002 v -0.002 c 0.11971,-0.0214 0.22689,-0.0586 0.32031,-0.11524 0.12007,-0.0714 0.21466,-0.173 0.27734,-0.29687 0.0608,-0.12162 0.0918,-0.25243 0.0918,-0.38868 0,-0.0858 -0.014,-0.16506 -0.0527,-0.23437 -0.0389,-0.0709 -0.0992,-0.12621 -0.17383,-0.17188 v 0.002 c -0.0712,-0.0445 -0.15467,-0.0701 -0.24805,-0.082 -0.0886,-0.0114 -0.20104,-0.0156 -0.3457,-0.0156 z m 0.20117,0.25391 h 0.47657 c 0.13856,0 0.24489,0.005 0.31445,0.0137 0.0673,0.009 0.1156,0.0257 0.14648,0.0449 0.05,0.0306 0.0762,0.0583 0.0859,0.0762 v 0.002 c 0.01,0.0174 0.0195,0.0543 0.0195,0.11132 0,0.0985 -0.0206,0.18777 -0.0644,0.2754 -0.0419,0.0829 -0.10012,0.14488 -0.18164,0.19335 -0.0622,0.0377 -0.13976,0.0651 -0.23438,0.082 -0.0948,0.0159 -0.22621,0.0254 -0.39062,0.0254 h -0.36328 z"
           id="path7493" /></g><g
         id="path7204"><path
           style="color:#000000;-inkscape-font-specification:'Montserrat Italic';stroke:none;-inkscape-stroke:none"
           d="m -115.45355,628.3417 h -1.80466 l 0.65833,-2.84956 h 0.38275 l -0.5837,2.52614 h 1.42192 z"
           id="path7497" /><path
           style="color:#000000;-inkscape-font-specification:'Montserrat Italic';fill:#ffffff;stroke:none;-inkscape-stroke:none"
           d="m -116.70117,625.36523 -0.7168,3.10352 h 2.06641 l 0.0215,-0.0977 0.11133,-0.48047 h -1.42188 l 0.58399,-2.52539 z m 0.20312,0.25391 h 0.1211 l -0.58399,2.52539 h 1.42188 l -0.0156,0.0703 h -1.54297 z"
           id="path7499" /></g><g
         id="path7206"><path
           style="color:#000000;-inkscape-font-specification:'Montserrat Italic';stroke:none;-inkscape-stroke:none"
           d="m -112.54083,625.49214 -0.0746,0.32342 h -1.49847 l -0.18372,0.80377 h 1.49847 l -0.0746,0.32151 h -1.49846 l -0.24879,1.07744 h 1.49846 l -0.0746,0.32342 h -1.87739 l 0.65642,-2.84956 z"
           id="path7503" /><path
           style="color:#000000;-inkscape-font-specification:'Montserrat Italic';fill:#ffffff;stroke:none;-inkscape-stroke:none"
           d="m -114.51953,625.36523 -0.71485,3.10352 h 2.13868 l 0.13281,-0.57813 h -1.49805 l 0.18946,-0.82226 h 1.49804 l 0.13477,-0.57617 h -1.5 l 0.12695,-0.54883 h 1.49805 l 0.13281,-0.57813 h -0.16016 z m 0.20312,0.25391 h 1.61524 l -0.0156,0.0703 h -1.49804 l -0.24219,1.05664 h 1.49805 l -0.0156,0.0684 h -1.49805 l -0.30859,1.33008 h 1.49805 l -0.0156,0.0703 h -1.61719 z"
           id="path7505" /></g></g><g
       aria-label="ETIQUETA 

CTKLABLE"
       id="text10038-4-3-1-2-5-0-9-7"
       style="font-weight:bold;font-size:3.91935px;font-family:Montserrat;-inkscape-font-specification:'Montserrat Bold';text-align:center;text-anchor:middle;fill:#c64600;stroke:#ffffff;stroke-width:0.254"><path
         d="m -129.16364,672.58429 h -2.0611 v -2.84957 h 2.0611 v 0.55116 h -1.33005 v 0.49183 h 1.23436 v 0.55116 h -1.23436 v 0.70426 h 1.33005 z"
         style="stroke:none"
         id="path7143" /><path
         d="m -126.3179,670.28588 h -0.88989 v 2.29841 h -0.73488 v -2.29841 h -0.88989 v -0.55116 h 2.51466 z"
         style="stroke:none"
         id="path7145" /><path
         d="m -124.33526,672.58429 h -1.66879 v -0.50523 h 0.46696 v -1.83911 h -0.46696 v -0.50523 h 1.66879 v 0.50523 h -0.46696 v 1.83911 h 0.46696 z"
         style="stroke:none"
         id="path7147" /><path
         d="m -121.93925,671.88195 q 0.10717,-0.13014 0.15884,-0.3062 0.0517,-0.17798 0.0517,-0.4172 0,-0.25644 -0.0593,-0.43633 -0.0593,-0.1799 -0.15501,-0.29089 -0.0976,-0.11483 -0.22582,-0.1665 -0.12631,-0.0517 -0.2641,-0.0517 -0.1397,0 -0.2641,0.0498 -0.12248,0.0498 -0.22582,0.16458 -0.0957,0.10717 -0.15692,0.29663 -0.0593,0.18755 -0.0593,0.43633 0,0.25453 0.0574,0.43442 0.0593,0.17798 0.15501,0.29089 0.0957,0.11291 0.22391,0.1665 0.12822,0.0536 0.26984,0.0536 0.14162,0 0.26984,-0.0536 0.12822,-0.0555 0.22391,-0.17032 z m 0.0785,0.66789 q 0.008,0.18946 0.10334,0.27175 0.0957,0.0823 0.32725,0.0823 0.0785,0 0.18564,-0.0268 0.10717,-0.0268 0.14927,-0.0478 h 0.0727 v 0.50523 q -0.10717,0.0249 -0.23348,0.044 -0.12439,0.0191 -0.38274,0.0191 -0.22774,0 -0.39806,-0.0574 -0.16841,-0.0555 -0.28132,-0.15884 -0.111,-0.10143 -0.1665,-0.23922 -0.0555,-0.13779 -0.0651,-0.3062 -0.63919,-0.0364 -0.99706,-0.42676 -0.35595,-0.39232 -0.35595,-1.04874 0,-0.68703 0.3904,-1.08509 0.3904,-0.39997 1.07744,-0.39997 0.68512,0 1.07744,0.39997 0.39231,0.39806 0.39231,1.08509 0,0.50715 -0.22965,0.8765 -0.22965,0.36744 -0.66598,0.51288 z"
         style="stroke:none"
         id="path7149" /><path
         d="m -117.90891,671.55278 q 0,0.52819 -0.3215,0.80952 -0.32151,0.28132 -0.94731,0.28132 -0.62579,0 -0.9473,-0.28132 -0.3196,-0.28133 -0.3196,-0.80761 v -1.81997 h 0.73871 v 1.77787 q 0,0.29663 0.12439,0.44208 0.12439,0.14544 0.4038,0.14544 0.27558,0 0.40189,-0.1397 0.12822,-0.1397 0.12822,-0.44782 v -1.77787 h 0.7387 z"
         style="stroke:none"
         id="path7151" /><path
         d="m -115.16077,672.58429 h -2.0611 v -2.84957 h 2.0611 v 0.55116 h -1.33005 v 0.49183 h 1.23437 v 0.55116 h -1.23437 v 0.70426 h 1.33005 z"
         style="stroke:none"
         id="path7153" /><path
         d="m -112.31503,670.28588 h -0.88989 v 2.29841 h -0.73488 v -2.29841 h -0.88989 v -0.55116 h 2.51466 z"
         style="stroke:none"
         id="path7155" /><path
         d="m -109.23964,672.58429 h -0.75976 l -0.19711,-0.57604 h -1.05639 l -0.19712,0.57604 h -0.74062 l 1.05256,-2.84957 h 0.84588 z m -1.13485,-1.09849 -0.35022,-1.02194 -0.35021,1.02194 z"
         style="stroke:none"
         id="path7157" /><g
         id="path7159"><path
           style="color:#000000;-inkscape-font-specification:'Montserrat Italic';stroke:none;-inkscape-stroke:none"
           d="m -128.34456,678.12305 q -0.54159,0 -0.8497,-0.27941 -0.30811,-0.28132 -0.30811,-0.79611 0,-0.39424 0.11865,-0.73488 0.11865,-0.34065 0.34065,-0.59709 0.22008,-0.25262 0.54159,-0.39806 0.3215,-0.14736 0.71765,-0.14736 0.24687,0 0.46695,0.0612 0.22008,0.0593 0.45165,0.18946 l -0.0861,0.42868 h -0.0287 q -0.0632,-0.0631 -0.12822,-0.11674 -0.0632,-0.0555 -0.19137,-0.12056 -0.10526,-0.0555 -0.2507,-0.0919 -0.14545,-0.0383 -0.32151,-0.0383 -0.26793,0 -0.49183,0.11291 -0.22391,0.111 -0.38849,0.31194 -0.16076,0.19521 -0.25262,0.47461 -0.0919,0.27941 -0.0919,0.59518 0,0.39423 0.20477,0.61431 0.20477,0.21817 0.59135,0.21817 0.1818,0 0.34447,-0.0402 0.16459,-0.0421 0.29855,-0.10526 0.12439,-0.0593 0.22391,-0.12439 0.0995,-0.0651 0.17032,-0.12057 h 0.0268 l -0.0899,0.44016 q -0.20095,0.10143 -0.46313,0.18372 -0.26027,0.0804 -0.55499,0.0804 z"
           id="path7397" /><path
           style="color:#000000;-inkscape-font-specification:'Montserrat Italic';fill:#ffffff;stroke:none;-inkscape-stroke:none"
           d="m -127.7832,675.04297 c -0.27985,0 -0.53919,0.0517 -0.77149,0.1582 -0.22958,0.10386 -0.42507,0.24924 -0.58398,0.43164 -0.15889,0.18354 -0.2813,0.39769 -0.36524,0.63867 -0.0841,0.24147 -0.125,0.49983 -0.125,0.77539 0,0.36854 0.11572,0.67707 0.34961,0.89063 0.23284,0.21115 0.55265,0.3125 0.93555,0.3125 h 0.082 l 0.006,-0.0137 c 0.17452,-0.007 0.34521,-0.0232 0.50391,-0.0723 0.18016,-0.0565 0.34095,-0.12 0.48242,-0.1914 l 0.0547,-0.0274 0.13476,-0.65429 h -0.22656 l -0.0352,0.0273 c -0.0435,0.034 -0.0981,0.0733 -0.16211,0.11523 -0.0608,0.0398 -0.13047,0.0778 -0.20898,0.11524 -0.0806,0.0379 -0.17307,0.0715 -0.27539,0.0977 -0.0972,0.0239 -0.20135,0.0352 -0.3125,0.0352 -0.23383,0 -0.38883,-0.0614 -0.49805,-0.17773 -0.11075,-0.11904 -0.16992,-0.28652 -0.16992,-0.52735 0,-0.19819 0.0272,-0.3819 0.084,-0.55469 0.0571,-0.17372 0.13466,-0.31724 0.23047,-0.43359 v -0.002 c 0.0991,-0.12099 0.21462,-0.21139 0.34766,-0.27735 0.13108,-0.0661 0.27477,-0.0996 0.43555,-0.0996 0.10816,0 0.20429,0.0109 0.28906,0.0332 0.0892,0.0223 0.1637,0.0509 0.22265,0.082 h 0.002 c 0.08,0.0406 0.13738,0.0784 0.16601,0.10351 v 0.002 h 0.002 c 0.0401,0.0331 0.0797,0.07 0.11914,0.10937 l 0.0371,0.0371 h 0.18554 l 0.125,-0.62109 -0.0801,-0.0449 c -0.16218,-0.0912 -0.32202,-0.15848 -0.48047,-0.20118 -0.15853,-0.0441 -0.32493,-0.0664 -0.5,-0.0664 z m 0,0.2539 c 0.15408,0 0.29673,0.0191 0.43164,0.0566 h 0.002 c 0.10867,0.0293 0.22363,0.0836 0.33984,0.14257 l -0.0273,0.13282 c -0.0536,-0.0451 -0.11851,-0.0858 -0.20312,-0.12891 l -0.002,-0.002 c -0.0802,-0.042 -0.17264,-0.0737 -0.27539,-0.0996 -0.10917,-0.0288 -0.22693,-0.043 -0.35351,-0.043 -0.19646,0 -0.38138,0.0425 -0.54883,0.12695 v -0.002 c -0.1655,0.082 -0.30934,0.19877 -0.42969,0.3457 -0.11853,0.14393 -0.21003,0.31682 -0.27539,0.51563 -0.0657,0.19976 -0.0996,0.41193 -0.0996,0.63476 0,0.28481 0.078,0.52677 0.24024,0.70117 0.1638,0.17453 0.40198,0.25782 0.68359,0.25782 0.13056,0 0.25585,-0.0135 0.375,-0.043 h 0.002 c 0.11649,-0.0298 0.22271,-0.0673 0.32031,-0.11328 v -0.002 c 0.0667,-0.0318 0.12595,-0.0648 0.1836,-0.0996 l -0.0176,0.0898 c -0.11559,0.0549 -0.24201,0.10765 -0.39063,0.15429 -0.16008,0.0493 -0.33137,0.0742 -0.51562,0.0742 -0.33922,0 -0.58765,-0.0847 -0.76562,-0.24609 -0.17693,-0.16154 -0.26563,-0.38527 -0.26563,-0.70313 0,-0.25008 0.0372,-0.48063 0.11133,-0.69335 0.0743,-0.21322 0.17929,-0.39631 0.3164,-0.55469 0.13453,-0.15442 0.29895,-0.27517 0.49805,-0.36524 0.19637,-0.09 0.41766,-0.13672 0.66602,-0.13672 z"
           id="path7399" /></g><g
         id="path7161"><path
           style="color:#000000;-inkscape-font-specification:'Montserrat Italic';stroke:none;-inkscape-stroke:none"
           d="m -124.26828,675.54524 h -1.0162 l -0.58369,2.52614 h -0.38275 l 0.58369,-2.52614 h -1.0162 l 0.0727,-0.32343 h 2.41514 z"
           id="path7403" /><path
           style="color:#000000;-inkscape-font-specification:'Montserrat Italic';fill:#ffffff;stroke:none;-inkscape-stroke:none"
           d="m -126.71289,675.0957 -0.12891,0.57617 h 1.01563 l -0.58399,2.52735 h 0.64258 l 0.58399,-2.52735 h 1.01757 l 0.0215,-0.0996 0.10742,-0.47657 z m 0.20312,0.25391 h 2.1543 l -0.0156,0.0684 h -1.01368 l -0.58398,2.52734 h -0.12305 l 0.58399,-2.52734 h -1.01758 z"
           id="path7405" /></g><g
         id="path7163"><path
           style="color:#000000;-inkscape-font-specification:'Montserrat Italic';stroke:none;-inkscape-stroke:none"
           d="m -122.14594,678.07138 h -0.44781 l -0.87841,-1.27264 -0.39041,0.33108 -0.21625,0.94156 h -0.38275 l 0.65833,-2.84957 h 0.38275 l -0.34447,1.47933 1.67452,-1.47933 h 0.48227 l -1.56353,1.3645 z"
           id="path7409" /><path
           style="color:#000000;-inkscape-font-specification:'Montserrat Italic';fill:#ffffff;stroke:none;-inkscape-stroke:none"
           d="m -123.9043,675.0957 -0.71679,3.10352 h 0.64257 l 0.23047,-1 0.25196,-0.21289 0.83593,1.21289 h 0.75586 L -122.04102,678 l -0.96093,-1.39258 1.73242,-1.51172 h -0.86914 l -1.41211,1.2461 0.29101,-1.2461 z m 0.20117,0.25391 h 0.1211 l -0.39649,1.70898 1.93555,-1.70898 h 0.0957 l -1.39257,1.21484 0.95312,1.38086 h -0.14062 l -0.91993,-1.33398 -0.52929,0.44922 -0.20313,0.88476 h -0.12304 z"
           id="path7411" /></g><g
         id="path7165"><path
           style="color:#000000;-inkscape-font-specification:'Montserrat Italic';stroke:none;-inkscape-stroke:none"
           d="m -119.95087,678.07138 h -1.80466 l 0.65833,-2.84957 h 0.38274 l -0.58369,2.52615 h 1.42191 z"
           id="path7415" /><path
           style="color:#000000;-inkscape-font-specification:'Montserrat Italic';fill:#ffffff;stroke:none;-inkscape-stroke:none"
           d="m -121.19727,675.0957 -0.71875,3.10352 h 2.06641 l 0.0234,-0.0996 0.10937,-0.47852 h -1.42187 l 0.58398,-2.52539 z m 0.20118,0.25391 h 0.12304 l -0.58398,2.52539 h 1.42187 l -0.0176,0.0703 h -1.54297 z"
           id="path7417" /></g><g
         id="path7167"><path
           style="color:#000000;-inkscape-font-specification:'Montserrat Italic';stroke:none;-inkscape-stroke:none"
           d="m -117.29459,678.07138 h -0.38467 l -0.0957,-0.80186 h -1.22863 l -0.46695,0.80186 h -0.39997 l 1.69557,-2.84957 h 0.50141 z m -0.52245,-1.11189 -0.17798,-1.4066 -0.82674,1.4066 z"
           id="path7421" /><path
           style="color:#000000;-inkscape-font-specification:'Montserrat Italic';fill:#ffffff;stroke:none;-inkscape-stroke:none"
           d="m -118.24805,675.0957 -1.8457,3.10352 h 0.69531 l 0.46875,-0.80274 h 1.04102 l 0.0957,0.80274 h 0.64258 l -0.0176,-0.14453 -0.39453,-2.95899 z m 0.14453,0.25391 h 0.0801 l -1.01953,1.73633 h 1.36914 l -0.0176,-0.14258 -0.20117,-1.59375 h 0.10742 l 0.34571,2.5957 h -0.12696 l -0.0957,-0.80273 h -1.41406 l -0.4668,0.80273 h -0.10547 z m 0.0293,0.58984 0.11328,0.89258 h -0.63867 z"
           id="path7423" /></g><g
         id="path7169"><path
           style="color:#000000;-inkscape-font-specification:'Montserrat Italic';stroke:none;-inkscape-stroke:none"
           d="m -114.96365,677.84173 q -0.18563,0.12439 -0.38849,0.17798 -0.20286,0.0517 -0.49949,0.0517 h -1.04682 l 0.65642,-2.84957 h 0.81908 q 0.31194,0 0.46313,0.021 0.1531,0.0211 0.2794,0.0976 0.10526,0.0651 0.15693,0.16649 0.0536,0.0995 0.0536,0.222 0,0.24687 -0.1397,0.43633 -0.1397,0.18946 -0.38658,0.2928 v 0.0153 q 0.22965,0.0517 0.35022,0.19329 0.12248,0.14162 0.12248,0.36361 0,0.24305 -0.12248,0.46121 -0.12057,0.21626 -0.31768,0.35022 z m 0.0823,-2.00752 q 0,-0.0804 -0.0268,-0.13205 -0.0268,-0.0536 -0.0765,-0.088 -0.0804,-0.0536 -0.20095,-0.067 -0.12056,-0.0153 -0.31194,-0.0153 h -0.4325 l -0.1952,0.84587 h 0.49757 q 0.16458,0 0.28706,-0.023 0.12248,-0.0249 0.21434,-0.0765 0.11865,-0.0689 0.18181,-0.1952 0.0631,-0.12822 0.0631,-0.24879 z m -0.0421,1.22288 q 0,-0.10717 -0.0364,-0.17223 -0.0364,-0.067 -0.13014,-0.1244 -0.0765,-0.0478 -0.19711,-0.0631 -0.11866,-0.0153 -0.33108,-0.0153 h -0.57604 l -0.2507,1.07935 h 0.52245 q 0.25453,0 0.41337,-0.0268 0.16076,-0.0287 0.27749,-0.0995 0.15119,-0.0899 0.22965,-0.24496 0.0785,-0.15693 0.0785,-0.333 z"
           id="path7427" /><path
           style="color:#000000;-inkscape-font-specification:'Montserrat Italic';fill:#ffffff;stroke:none;-inkscape-stroke:none"
           d="m -116.34375,675.0957 -0.71484,3.10352 h 1.20703 c 0.20513,0 0.38165,-0.0185 0.53125,-0.0566 0.14945,-0.0395 0.29321,-0.10517 0.42773,-0.19531 l 0.0273,-0.0195 0.0137,-0.0254 0.002,-0.004 c 0.12373,-0.095 0.23608,-0.20513 0.31445,-0.34571 0.0915,-0.16299 0.13868,-0.34007 0.13868,-0.52343 0,-0.17135 -0.0512,-0.32607 -0.1543,-0.44532 -0.0567,-0.0662 -0.15323,-0.0901 -0.23438,-0.13086 0.0993,-0.0647 0.20921,-0.12048 0.27735,-0.21289 0.10877,-0.14751 0.16406,-0.32318 0.16406,-0.51171 0,-0.10019 -0.0223,-0.19576 -0.0684,-0.28125 -0.0453,-0.0878 -0.11463,-0.16133 -0.20117,-0.21485 h -0.002 c -0.0987,-0.0598 -0.20893,-0.0988 -0.32618,-0.11523 h -0.002 c -0.11249,-0.0155 -0.27051,-0.0215 -0.48047,-0.0215 z m 0.20312,0.25391 h 0.7168 c 0.20511,0 0.35826,0.007 0.44727,0.0195 0.0855,0.0118 0.15976,0.0387 0.22851,0.0801 0.053,0.0328 0.0877,0.0689 0.11133,0.11523 v 0.002 h 0.002 c 0.0254,0.0472 0.0371,0.099 0.0371,0.16211 0,0.14062 -0.0358,0.25622 -0.11328,0.36132 -0.0573,0.0777 -0.15169,0.13009 -0.24414,0.1836 0.0427,-0.0439 0.097,-0.0768 0.125,-0.13282 v -0.002 c 0.049,-0.0996 0.0762,-0.20215 0.0762,-0.30469 0,-0.0677 -0.0107,-0.1311 -0.041,-0.18945 -0.027,-0.0541 -0.0675,-0.10034 -0.11719,-0.13476 h -0.002 v -0.002 c -0.0734,-0.0489 -0.16086,-0.0751 -0.25586,-0.0859 h -0.002 c -0.0884,-0.0111 -0.19597,-0.0176 -0.32617,-0.0176 h -0.5332 l -0.25391,1.09961 h 0.65821 c 0.11563,0 0.21875,-0.006 0.31054,-0.0234 v -0.002 h 0.002 c 0.0707,-0.0144 0.13091,-0.0407 0.1914,-0.0684 v 0.16406 l 0.0996,0.0234 c 0.13351,0.03 0.22173,0.0805 0.28125,0.15039 v 0.002 c 0.0602,0.0696 0.0918,0.15466 0.0918,0.2793 0,0.1407 -0.0337,0.2725 -0.10547,0.40039 h -0.002 c -0.0715,0.1282 -0.16226,0.22842 -0.27735,0.30664 -0.11298,0.0757 -0.22858,0.12818 -0.34961,0.16015 -0.12068,0.0306 -0.2772,0.0488 -0.46679,0.0488 h -0.88867 z m 1.38672,0.48437 -0.008,0.041 0.008,-0.0195 z m -1.07422,-0.17578 h 0.33008 c 0.12421,0 0.22483,0.006 0.29688,0.0156 h 0.002 c 0.065,0.007 0.11124,0.0247 0.14453,0.0469 0.0151,0.0109 0.025,0.0226 0.0332,0.0391 0.005,0.0105 0.0137,0.0347 0.0137,0.0742 0,0.0582 -0.0157,0.12203 -0.0508,0.19336 -0.0319,0.0633 -0.0729,0.10696 -0.13086,0.14063 -0.0476,0.0265 -0.10553,0.0482 -0.17578,0.0625 -0.0712,0.0132 -0.15868,0.0195 -0.26172,0.0195 h -0.33789 z m -0.46679,0.89649 -0.31055,1.33398 h 0.68359 c 0.17415,0 0.31673,-0.01 0.4336,-0.0293 h 0.002 c 0.11973,-0.0214 0.2269,-0.0586 0.32031,-0.11523 0.12007,-0.0714 0.21467,-0.173 0.27735,-0.29687 0.0608,-0.12162 0.0918,-0.25438 0.0918,-0.39063 0,-0.0858 -0.0139,-0.16507 -0.0527,-0.23437 -0.0389,-0.0703 -0.0996,-0.12451 -0.17383,-0.16993 -0.0713,-0.0445 -0.15458,-0.0682 -0.24804,-0.0801 -0.0886,-0.0114 -0.203,-0.0176 -0.34766,-0.0176 z m 0.20117,0.2539 h 0.47461 c 0.13856,0 0.24683,0.007 0.31641,0.0156 0.0673,0.009 0.1138,0.0238 0.14453,0.043 l 0.002,0.002 c 0.05,0.0306 0.0743,0.0583 0.084,0.0762 h 0.002 v 0.002 c 0.01,0.0174 0.0195,0.0523 0.0195,0.10937 0,0.0985 -0.0206,0.18972 -0.0644,0.27734 -0.0419,0.0822 -0.10056,0.1432 -0.18165,0.19141 v 0.002 c -0.0622,0.0377 -0.13975,0.0651 -0.23437,0.082 -0.0948,0.0159 -0.22621,0.0254 -0.39063,0.0254 h -0.36328 z"
           id="path7429" /></g><g
         id="path7171"><path
           style="color:#000000;-inkscape-font-specification:'Montserrat Italic';stroke:none;-inkscape-stroke:none"
           d="m -112.40689,678.07138 h -1.80466 l 0.65833,-2.84957 h 0.38275 l -0.58369,2.52615 h 1.42191 z"
           id="path7433" /><path
           style="color:#000000;-inkscape-font-specification:'Montserrat Italic';fill:#ffffff;stroke:none;-inkscape-stroke:none"
           d="m -113.6543,675.0957 -0.71679,3.10352 h 2.06445 l 0.0234,-0.0996 0.11132,-0.47852 h -1.42382 l 0.58398,-2.52539 z m 0.20117,0.25391 h 0.12305 l -0.58398,2.52539 h 1.42187 l -0.0156,0.0703 h -1.54492 z"
           id="path7435" /></g><g
         id="path7173"><path
           style="color:#000000;-inkscape-font-specification:'Montserrat Italic';stroke:none;-inkscape-stroke:none"
           d="m -109.49417,675.22181 -0.0746,0.32343 h -1.49847 l -0.18372,0.80377 h 1.49847 l -0.0746,0.32151 h -1.49846 l -0.24879,1.07744 h 1.49846 l -0.0746,0.32342 h -1.87739 l 0.65642,-2.84957 z"
           id="path7439" /><path
           style="color:#000000;-inkscape-font-specification:'Montserrat Italic';fill:#ffffff;stroke:none;-inkscape-stroke:none"
           d="m -111.47266,675.0957 -0.71484,3.10352 h 2.13867 l 0.13281,-0.57813 h -1.5 l 0.19141,-0.82422 h 1.49805 l 0.13476,-0.57421 h -1.5 l 0.125,-0.55079 h 1.5 l 0.13282,-0.57617 h -0.16016 z m 0.20313,0.25391 h 1.61523 l -0.0156,0.0684 h -1.49805 l -0.24219,1.05859 h 1.49805 l -0.0156,0.0664 h -1.49805 l -0.3086,1.33203 h 1.49805 l -0.0156,0.0703 h -1.61719 z"
           id="path7441" /></g></g><g
       aria-label="BOTÓN - CTKBUTTON"
       id="text10038-4-3-1-2-5-0-3-8"
       style="font-weight:bold;font-size:3.91935px;font-family:Montserrat;-inkscape-font-specification:'Montserrat Bold';text-align:center;text-anchor:middle;fill:#c64600;stroke:#ffffff;stroke-width:0.254"><path
         d="m -139.84328,688.03517 q 0,0.20668 -0.0842,0.36935 -0.0823,0.16267 -0.22773,0.26984 -0.16841,0.12631 -0.37127,0.17989 -0.20094,0.0536 -0.51097,0.0536 h -1.24393 v -2.84957 h 1.10614 q 0.34448,0 0.50332,0.023 0.16075,0.023 0.31768,0.10142 0.16267,0.0823 0.24113,0.222 0.0804,0.13779 0.0804,0.31577 0,0.20668 -0.10908,0.36552 -0.10909,0.15693 -0.30812,0.24496 v 0.0153 q 0.27941,0.0555 0.44208,0.22965 0.16458,0.17415 0.16458,0.4593 z m -0.94156,-1.17121 q 0,-0.0708 -0.0364,-0.14162 -0.0344,-0.0708 -0.1244,-0.10526 -0.0804,-0.0306 -0.20094,-0.0325 -0.11865,-0.004 -0.33491,-0.004 h -0.0689 v 0.60283 h 0.11482 q 0.17415,0 0.29663,-0.006 0.12248,-0.006 0.19329,-0.0383 0.0995,-0.044 0.13014,-0.11291 0.0306,-0.0708 0.0306,-0.16267 z m 0.17989,1.15973 q 0,-0.13588 -0.0536,-0.2086 -0.0517,-0.0746 -0.17797,-0.111 -0.0861,-0.0249 -0.23731,-0.0268 -0.15118,-0.002 -0.31577,-0.002 h -0.16075 v 0.70999 h 0.0536 q 0.31003,0 0.44399,-0.002 0.13396,-0.002 0.24688,-0.0498 0.11482,-0.0478 0.15692,-0.1263 0.044,-0.0804 0.044,-0.18372 z"
         style="stroke:none"
         id="path7112" /><path
         d="m -136.52485,687.48401 q 0,0.68129 -0.3904,1.08318 -0.3904,0.39997 -1.07935,0.39997 -0.68704,0 -1.07744,-0.39997 -0.39041,-0.40189 -0.39041,-1.08318 0,-0.68703 0.39041,-1.08509 0.3904,-0.39998 1.07744,-0.39998 0.68512,0 1.07744,0.39998 0.39231,0.39806 0.39231,1.08509 z m -0.97409,0.72148 q 0.10717,-0.13013 0.15884,-0.3062 0.0517,-0.17798 0.0517,-0.41719 0,-0.25645 -0.0593,-0.43634 -0.0593,-0.17989 -0.15501,-0.29089 -0.0976,-0.11482 -0.22582,-0.16649 -0.12631,-0.0517 -0.2641,-0.0517 -0.1397,0 -0.2641,0.0498 -0.12248,0.0498 -0.22582,0.16459 -0.0957,0.10717 -0.15692,0.29663 -0.0593,0.18754 -0.0593,0.43633 0,0.25453 0.0574,0.43442 0.0593,0.17798 0.15501,0.29089 0.0957,0.11291 0.22391,0.1665 0.12822,0.0536 0.26984,0.0536 0.14162,0 0.26984,-0.0536 0.12822,-0.0555 0.22391,-0.17033 z"
         style="stroke:none"
         id="path7114" /><path
         d="m -133.73461,686.60943 h -0.88989 v 2.29841 h -0.73488 v -2.29841 h -0.88989 v -0.55116 h 2.51466 z"
         style="stroke:none"
         id="path7116" /><path
         d="m -130.52143,687.48401 q 0,0.68129 -0.3904,1.08318 -0.39041,0.39997 -1.07935,0.39997 -0.68704,0 -1.07744,-0.39997 -0.39041,-0.40189 -0.39041,-1.08318 0,-0.68703 0.39041,-1.08509 0.3904,-0.39998 1.07744,-0.39998 0.68512,0 1.07743,0.39998 0.39232,0.39806 0.39232,1.08509 z m -0.97409,0.72148 q 0.10717,-0.13013 0.15884,-0.3062 0.0517,-0.17798 0.0517,-0.41719 0,-0.25645 -0.0593,-0.43634 -0.0593,-0.17989 -0.15501,-0.29089 -0.0976,-0.11482 -0.22582,-0.16649 -0.12631,-0.0517 -0.2641,-0.0517 -0.1397,0 -0.2641,0.0498 -0.12248,0.0498 -0.22582,0.16459 -0.0957,0.10717 -0.15693,0.29663 -0.0593,0.18754 -0.0593,0.43633 0,0.25453 0.0574,0.43442 0.0593,0.17798 0.15501,0.29089 0.0957,0.11291 0.22391,0.1665 0.12822,0.0536 0.26984,0.0536 0.14162,0 0.26984,-0.0536 0.12822,-0.0555 0.22391,-0.17033 z m 0.1818,-3.21892 v 0.0383 l -0.67364,0.71383 h -0.47078 l 0.4727,-0.75211 z"
         style="stroke:none"
         id="path7118" /><path
         d="m -127.36949,688.90784 h -0.70809 l -1.20948,-1.95585 v 1.95585 h -0.67364 v -2.84957 h 0.87841 l 1.03916,1.63243 v -1.63243 h 0.67364 z"
         style="stroke:none"
         id="path7120" /><path
         d="m -123.99556,687.91652 h -1.46019 v -0.55116 h 1.46019 z"
         style="stroke:none"
         id="path7122" /><g
         id="path7124"><path
           style="color:#000000;-inkscape-font-specification:'Montserrat Italic';stroke:none;-inkscape-stroke:none"
           d="m -121.03308,688.95951 q -0.54159,0 -0.8497,-0.27941 -0.30812,-0.28132 -0.30812,-0.79612 0,-0.39423 0.11866,-0.73487 0.11865,-0.34065 0.34064,-0.59709 0.22008,-0.25262 0.54159,-0.39806 0.32151,-0.14736 0.71766,-0.14736 0.24687,0 0.46695,0.0612 0.22008,0.0593 0.45164,0.18946 l -0.0861,0.42868 h -0.0287 q -0.0631,-0.0631 -0.12822,-0.11674 -0.0631,-0.0555 -0.19138,-0.12057 -0.10525,-0.0555 -0.2507,-0.0919 -0.14544,-0.0383 -0.32151,-0.0383 -0.26792,0 -0.49183,0.11291 -0.22391,0.111 -0.38849,0.31194 -0.16075,0.1952 -0.25261,0.47461 -0.0919,0.27941 -0.0919,0.59517 0,0.39424 0.20477,0.61432 0.20477,0.21816 0.59135,0.21816 0.1818,0 0.34447,-0.0402 0.16458,-0.0421 0.29854,-0.10526 0.1244,-0.0593 0.22391,-0.12439 0.0995,-0.0651 0.17033,-0.12057 h 0.0268 l -0.09,0.44016 q -0.20094,0.10143 -0.46312,0.18372 -0.26027,0.0804 -0.55499,0.0804 z"
           id="path7327" /><path
           style="color:#000000;-inkscape-font-specification:'Montserrat Italic';fill:#ffffff;stroke:none;-inkscape-stroke:none"
           d="m -120.47266,685.87891 c -0.27984,0 -0.53723,0.0537 -0.76953,0.16015 -0.22958,0.10386 -0.42702,0.24728 -0.58594,0.42969 -0.15887,0.18353 -0.27934,0.39769 -0.36328,0.63867 -0.0841,0.24147 -0.12695,0.50178 -0.12695,0.77735 0,0.36853 0.11571,0.67511 0.34961,0.88867 0.23284,0.21115 0.55265,0.3125 0.93555,0.3125 h 0.21484 l -0.0156,-0.0293 c 0.13339,-0.0128 0.26892,-0.0184 0.39257,-0.0566 h 0.002 c 0.18016,-0.0566 0.34096,-0.12 0.48242,-0.19141 l 0.0547,-0.0273 0.13281,-0.65234 h -0.22656 l -0.0332,0.0254 c -0.0435,0.034 -0.0981,0.0733 -0.16211,0.11523 -0.0608,0.0398 -0.13047,0.0778 -0.20898,0.11524 -0.081,0.0382 -0.17243,0.0713 -0.27539,0.0977 -0.0977,0.0242 -0.20066,0.0352 -0.3125,0.0352 -0.23383,0 -0.39078,-0.0614 -0.5,-0.17774 -0.11004,-0.11896 -0.16992,-0.28731 -0.16992,-0.52734 0,-0.19819 0.0291,-0.3819 0.0859,-0.55469 0.0571,-0.17373 0.13466,-0.31725 0.23047,-0.43359 0.0991,-0.12099 0.21266,-0.21334 0.34571,-0.2793 h 0.002 c 0.13109,-0.0661 0.27282,-0.0996 0.43359,-0.0996 0.10817,0 0.20431,0.0128 0.28907,0.0352 h 0.002 c 0.0892,0.0223 0.16371,0.049 0.22265,0.0801 l 0.002,0.002 c 0.08,0.0406 0.13556,0.0765 0.16406,0.10156 l 0.002,0.002 0.002,0.002 c 0.0401,0.033 0.0798,0.0681 0.11914,0.10742 l 0.0371,0.0371 h 0.18554 l 0.125,-0.62109 -0.082,-0.0449 c -0.16161,-0.0908 -0.32059,-0.15845 -0.47851,-0.20117 h -0.002 c -0.15799,-0.0437 -0.32559,-0.0664 -0.5,-0.0664 z m 0,0.2539 c 0.15409,0 0.29869,0.0191 0.4336,0.0566 0.10877,0.0293 0.22547,0.0835 0.34179,0.14258 l -0.0273,0.13477 c -0.0538,-0.0454 -0.11982,-0.0875 -0.20508,-0.13086 h -0.002 c -0.0805,-0.0423 -0.17211,-0.0756 -0.27539,-0.10157 h -0.002 c -0.10867,-0.0284 -0.22567,-0.043 -0.35157,-0.043 -0.19645,0 -0.38137,0.0425 -0.54883,0.12695 -0.1655,0.082 -0.30934,0.19682 -0.42968,0.34375 -0.11853,0.14392 -0.21003,0.31681 -0.27539,0.51562 -0.0657,0.19977 -0.0977,0.41194 -0.0977,0.63477 0,0.28481 0.076,0.52676 0.23828,0.70117 0.16381,0.17452 0.40394,0.25977 0.68555,0.25977 0.13056,0 0.25585,-0.0155 0.375,-0.0449 0.11648,-0.0298 0.22466,-0.0673 0.32226,-0.11329 0.0675,-0.0322 0.12537,-0.0682 0.1836,-0.10351 l -0.0176,0.0918 c -0.1159,0.0552 -0.24144,0.10747 -0.39063,0.15429 -0.16059,0.0496 -0.33264,0.0742 -0.51757,0.0742 -0.33922,0 -0.5857,-0.0847 -0.76368,-0.24609 -0.17692,-0.16154 -0.26757,-0.38331 -0.26757,-0.70117 0,-0.25008 0.0372,-0.48064 0.11132,-0.69336 0.0743,-0.21322 0.18126,-0.39826 0.31836,-0.55664 0.13434,-0.15386 0.29946,-0.2754 0.49805,-0.36524 0.19638,-0.09 0.41571,-0.13672 0.66406,-0.13672 z"
           id="path7329" /></g><g
         id="path7126"><path
           style="color:#000000;-inkscape-font-specification:'Montserrat Italic';stroke:none;-inkscape-stroke:none"
           d="m -116.9568,686.38169 h -1.0162 l -0.58369,2.52615 h -0.38275 l 0.58369,-2.52615 h -1.0162 l 0.0727,-0.32342 h 2.41515 z"
           id="path7333" /><path
           style="color:#000000;-inkscape-font-specification:'Montserrat Italic';fill:#ffffff;stroke:none;-inkscape-stroke:none"
           d="m -119.40039,685.93164 -0.13086,0.57617 h 1.01758 l -0.58594,2.52735 h 0.64453 l 0.58399,-2.52735 h 1.01562 l 0.0234,-0.0976 0.10742,-0.47852 z m 0.20312,0.25391 h 2.1543 l -0.0156,0.0684 h -1.01563 l -0.58398,2.52734 h -0.12305 l 0.58594,-2.52734 h -1.01758 z"
           id="path7335" /></g><g
         id="path7128"><path
           style="color:#000000;-inkscape-font-specification:'Montserrat Italic';stroke:none;-inkscape-stroke:none"
           d="m -114.83446,688.90784 h -0.44782 l -0.8784,-1.27264 -0.39041,0.33107 -0.21625,0.94157 h -0.38275 l 0.65833,-2.84957 h 0.38275 l -0.34448,1.47933 1.67453,-1.47933 h 0.48226 l -1.56353,1.3645 z"
           id="path7339" /><path
           style="color:#000000;-inkscape-font-specification:'Montserrat Italic';fill:#ffffff;stroke:none;-inkscape-stroke:none"
           d="m -116.5918,685.93164 -0.71875,3.10352 h 0.64453 l 0.22852,-1 0.25195,-0.21289 0.83594,1.21289 h 0.75781 l -0.13867,-0.19922 -0.96094,-1.39258 1.73243,-1.51172 h -0.86719 l -1.41406,1.25 0.29101,-1.25 z m 0.20117,0.25391 h 0.1211 l -0.39844,1.71093 h 0.002 l 1.93555,-1.71093 h 0.0937 l -1.39258,1.21679 0.95313,1.37891 h -0.13867 l -0.92188,-1.33398 -0.5293,0.44921 -0.20312,0.88477 h -0.12109 z"
           id="path7341" /></g><g
         id="path7130"><path
           style="color:#000000;-inkscape-font-specification:'Montserrat Italic';stroke:none;-inkscape-stroke:none"
           d="m -112.50926,688.67819 q -0.18563,0.12439 -0.38849,0.17798 -0.20286,0.0517 -0.49949,0.0517 h -1.04682 l 0.65642,-2.84957 h 0.81908 q 0.31194,0 0.46313,0.0211 0.1531,0.021 0.27941,0.0976 0.10525,0.0651 0.15692,0.1665 0.0536,0.0995 0.0536,0.22199 0,0.24688 -0.13971,0.43634 -0.1397,0.18946 -0.38657,0.2928 v 0.0153 q 0.22965,0.0517 0.35021,0.19329 0.12248,0.14162 0.12248,0.36361 0,0.24305 -0.12248,0.46121 -0.12056,0.21626 -0.31768,0.35022 z m 0.0823,-2.00752 q 0,-0.0804 -0.0268,-0.13205 -0.0268,-0.0536 -0.0765,-0.088 -0.0804,-0.0536 -0.20094,-0.067 -0.12057,-0.0153 -0.31194,-0.0153 h -0.43251 l -0.1952,0.84587 h 0.49757 q 0.16458,0 0.28706,-0.023 0.12248,-0.0249 0.21434,-0.0765 0.11865,-0.0689 0.18181,-0.1952 0.0632,-0.12823 0.0632,-0.24879 z m -0.0421,1.22288 q 0,-0.10717 -0.0364,-0.17224 -0.0364,-0.067 -0.13014,-0.12439 -0.0765,-0.0478 -0.19711,-0.0631 -0.11865,-0.0153 -0.33108,-0.0153 h -0.57604 l -0.2507,1.07935 h 0.52245 q 0.25453,0 0.41337,-0.0268 0.16076,-0.0287 0.2775,-0.0995 0.15118,-0.0899 0.22965,-0.24496 0.0785,-0.15692 0.0785,-0.33299 z"
           id="path7345" /><path
           style="color:#000000;-inkscape-font-specification:'Montserrat Italic';fill:#ffffff;stroke:none;-inkscape-stroke:none"
           d="m -113.88867,685.93164 -0.71485,3.10352 h 1.20704 c 0.20513,0 0.3797,-0.0185 0.52929,-0.0566 h 0.002 c 0.0892,-0.0236 0.16978,-0.0753 0.2539,-0.11719 l 0.006,0.0371 0.16602,-0.11524 h 0.002 c 0.14774,-0.1004 0.26815,-0.23243 0.35742,-0.39258 0.0915,-0.16299 0.13867,-0.34007 0.13867,-0.52343 0,-0.17135 -0.0512,-0.32802 -0.15429,-0.44727 -0.0567,-0.0666 -0.153,-0.0899 -0.23438,-0.13086 0.0991,-0.0647 0.2093,-0.11865 0.27735,-0.21094 0.10877,-0.14751 0.16406,-0.32317 0.16406,-0.51171 0,-0.10019 -0.0223,-0.19772 -0.0684,-0.28321 -0.0453,-0.0878 -0.11659,-0.16131 -0.20313,-0.21484 -0.0993,-0.0602 -0.21012,-0.0991 -0.32812,-0.11524 -0.11264,-0.0157 -0.26965,-0.0215 -0.48047,-0.0215 z m 0.20117,0.25391 h 0.71875 c 0.2051,0 0.35636,0.007 0.44531,0.0195 0.0855,0.0117 0.16174,0.0387 0.23047,0.0801 0.053,0.0328 0.0877,0.0689 0.11133,0.11523 v 0.002 0.002 c 0.0254,0.0472 0.0391,0.099 0.0391,0.16211 0,0.14063 -0.0377,0.25427 -0.11523,0.35937 -0.0577,0.0783 -0.1507,0.13181 -0.24414,0.18555 0.0433,-0.0443 0.0967,-0.0781 0.125,-0.13477 0.0491,-0.0996 0.0762,-0.20407 0.0762,-0.30664 v -0.0898 l -0.0215,-0.008 c -0.007,-0.0308 -0.005,-0.0635 -0.0195,-0.0918 -0.027,-0.0531 -0.0663,-0.10087 -0.11523,-0.13477 h -0.002 c -0.0734,-0.0489 -0.16086,-0.0771 -0.25586,-0.0879 h -0.002 c -0.0884,-0.0111 -0.19598,-0.0156 -0.32617,-0.0156 h -0.5332 l -0.25391,1.09961 h 0.65625 c 0.11564,0 0.21875,-0.008 0.31055,-0.0254 h 0.002 c 0.0709,-0.0144 0.13273,-0.0425 0.19336,-0.0703 v 0.16602 l 0.0977,0.0215 c 0.13351,0.0301 0.22173,0.0824 0.28125,0.15235 h 0.002 c 0.0602,0.0696 0.0918,0.15661 0.0918,0.28125 0,0.1407 -0.0356,0.27055 -0.10742,0.39843 -0.0715,0.12821 -0.16226,0.22843 -0.27735,0.30665 -0.11299,0.0757 -0.22858,0.12818 -0.34961,0.16015 -0.12088,0.0308 -0.27642,0.0488 -0.46679,0.0488 h -0.88868 z m 0.3125,0.31054 h 0.33203 c 0.1242,0 0.22287,0.005 0.29492,0.0137 h 0.002 c 0.065,0.007 0.11124,0.0247 0.14453,0.0469 0.0157,0.0111 0.0267,0.0222 0.0352,0.0391 v 0.002 c 0.005,0.0105 0.0117,0.0328 0.0117,0.0723 0,0.0582 -0.0137,0.12203 -0.0488,0.19336 -0.032,0.064 -0.0744,0.1067 -0.13281,0.14063 -0.0476,0.0265 -0.10553,0.0482 -0.17578,0.0625 -0.0712,0.0132 -0.15868,0.0215 -0.26172,0.0215 h -0.33789 z m -0.46484,0.89453 -0.31055,1.33399 h 0.68164 c 0.17414,0 0.31868,-0.008 0.43555,-0.0273 v -0.002 c 0.11908,-0.0213 0.22723,-0.0591 0.32031,-0.11523 0.12006,-0.0714 0.21661,-0.17301 0.2793,-0.29688 0.0608,-0.12161 0.0918,-0.25241 0.0918,-0.38867 v -0.002 c 0,-0.0858 -0.014,-0.16312 -0.0527,-0.23242 -0.0388,-0.0715 -0.0988,-0.12595 -0.17383,-0.17188 -0.0713,-0.0445 -0.15458,-0.0682 -0.24805,-0.0801 -0.0886,-0.0114 -0.20298,-0.0176 -0.34765,-0.0176 z m 0.20117,0.25586 h 0.47461 c 0.13857,0 0.24489,0.005 0.31445,0.0137 0.0674,0.009 0.11576,0.0257 0.14648,0.0449 h 0.002 c 0.05,0.0306 0.0743,0.0583 0.084,0.0762 v 0.002 c 0.01,0.0175 0.0215,0.0523 0.0215,0.10938 v 0.002 c 0,0.0985 -0.0226,0.18778 -0.0664,0.27539 h 0.002 c -0.0419,0.0829 -0.10012,0.14489 -0.18164,0.19336 h -0.002 c -0.0622,0.0377 -0.1378,0.0651 -0.23242,0.082 -0.0949,0.016 -0.22735,0.0254 -0.39258,0.0254 H -113.83 Z"
           id="path7347" /></g><g
         id="path7132"><path
           style="color:#000000;-inkscape-font-specification:'Montserrat Italic';stroke:none;-inkscape-stroke:none"
           d="m -109.34584,687.76342 q -0.0746,0.31959 -0.18946,0.54541 -0.11482,0.22391 -0.30429,0.37893 -0.17606,0.14161 -0.38274,0.21051 -0.20478,0.0689 -0.48227,0.0689 -0.44973,0 -0.66981,-0.20285 -0.22008,-0.20286 -0.22008,-0.56073 0,-0.12057 0.0153,-0.22391 0.0172,-0.10334 0.0421,-0.21625 l 0.39423,-1.70515 h 0.38275 l -0.39806,1.72428 q -0.023,0.0899 -0.0383,0.20286 -0.0134,0.111 -0.0134,0.17415 0,0.24113 0.14353,0.36936 0.14353,0.1263 0.42868,0.1263 0.20477,0 0.35979,-0.0631 0.15501,-0.0632 0.26984,-0.18946 0.10334,-0.11865 0.16458,-0.26218 0.0632,-0.14545 0.10908,-0.34831 l 0.39997,-1.73385 h 0.38275 z"
           id="path7351" /><path
           style="color:#000000;-inkscape-font-specification:'Montserrat Italic';fill:#ffffff;stroke:none;-inkscape-stroke:none"
           d="m -111.24414,685.93164 -0.41602,1.80469 c -0.017,0.0772 -0.033,0.15136 -0.0449,0.22265 v 0.002 c -0.0113,0.076 -0.0156,0.15643 -0.0156,0.24218 0,0.26462 0.0857,0.49384 0.25976,0.6543 0.17842,0.16445 0.43695,0.23633 0.75586,0.23633 0.19551,0 0.37049,-0.0228 0.52344,-0.0742 0.15229,-0.0508 0.29343,-0.12911 0.42187,-0.23242 v -0.002 c 0.13978,-0.11437 0.25384,-0.25405 0.33789,-0.41797 0.0825,-0.16222 0.14772,-0.35356 0.19922,-0.57422 l 0.43164,-1.86133 h -0.64453 l -0.42187,1.83203 c -0.0293,0.12937 -0.0635,0.2387 -0.10156,0.32617 h -0.002 c -0.0353,0.0828 -0.0811,0.15779 -0.14062,0.22657 -3.8e-4,4.1e-4 -0.002,-4.1e-4 -0.002,0 -3.7e-4,4.2e-4 3.8e-4,0.002 0,0.002 -0.064,0.0698 -0.13739,0.12149 -0.22265,0.15625 -0.0853,0.0347 -0.18708,0.0527 -0.31055,0.0527 -0.17135,0 -0.28133,-0.0371 -0.3457,-0.0937 -0.0662,-0.0591 -0.0996,-0.13788 -0.0996,-0.27343 0,-0.0327 0.003,-0.0883 0.0117,-0.15821 V 688 c 0.01,-0.0705 0.0215,-0.13198 0.0352,-0.18555 v -0.002 l 0.43555,-1.88086 z m 0.20312,0.25391 h 0.1211 l -0.36133,1.56836 c -0.0166,0.0653 -0.0304,0.13628 -0.041,0.21484 v 0.002 c -0.009,0.0769 -0.0137,0.13837 -0.0137,0.18946 0,0.18595 0.0604,0.35105 0.18555,0.46289 v 0.002 c 0.127,0.11175 0.30482,0.1582 0.51367,0.1582 0.14956,0 0.28482,-0.0248 0.40625,-0.0742 0.12057,-0.0491 0.22781,-0.12329 0.31641,-0.2207 v -0.002 h 0.002 c 0.077,-0.0884 0.13962,-0.18773 0.18555,-0.29492 v -0.002 c 0.046,-0.1061 0.0835,-0.22871 0.11523,-0.36914 l 0.37891,-1.63476 h 0.12109 l -0.35742,1.54882 c -0.048,0.20546 -0.10905,0.37871 -0.17969,0.51758 -0.0687,0.13352 -0.15958,0.24412 -0.27148,0.33594 -0.1063,0.0855 -0.21851,0.14835 -0.3418,0.18945 h -0.002 c -0.12009,0.0404 -0.26693,0.0625 -0.44141,0.0625 -0.28072,0 -0.46896,-0.062 -0.58398,-0.16797 -0.11936,-0.11001 -0.17774,-0.2562 -0.17774,-0.46875 0,-0.0743 0.005,-0.14177 0.0137,-0.20312 v -0.002 c 0.011,-0.066 0.025,-0.13437 0.041,-0.20703 l -0.002,0.002 z"
           id="path7353" /></g><g
         id="path7134"><path
           style="color:#000000;-inkscape-font-specification:'Montserrat Italic';stroke:none;-inkscape-stroke:none"
           d="m -106.27045,686.38169 h -1.0162 l -0.58369,2.52615 h -0.38275 l 0.58369,-2.52615 h -1.0162 l 0.0727,-0.32342 h 2.41514 z"
           id="path7357" /><path
           style="color:#000000;-inkscape-font-specification:'Montserrat Italic';fill:#ffffff;stroke:none;-inkscape-stroke:none"
           d="m -108.71484,685.93164 -0.12891,0.57617 h 1.01562 l -0.58398,2.52735 h 0.64258 l 0.58398,-2.52735 h 1.01758 l 0.0215,-0.0976 0.10742,-0.47852 z m 0.20312,0.25391 h 2.1543 l -0.0156,0.0684 h -1.01367 l -0.58398,2.52734 h -0.12305 l 0.58398,-2.52734 h -1.01757 z"
           id="path7359" /></g><g
         id="path7136"><path
           style="color:#000000;-inkscape-font-specification:'Montserrat Italic';stroke:none;-inkscape-stroke:none"
           d="m -103.8553,686.38169 h -1.0162 l -0.58369,2.52615 h -0.38275 l 0.58369,-2.52615 h -1.0162 l 0.0727,-0.32342 h 2.41515 z"
           id="path7363" /><path
           style="color:#000000;-inkscape-font-specification:'Montserrat Italic';fill:#ffffff;stroke:none;-inkscape-stroke:none"
           d="m -106.29883,685.93164 -0.13086,0.57617 h 1.01563 l -0.58399,2.52735 h 0.64453 l 0.58399,-2.52735 h 1.01562 l 0.0234,-0.0976 0.10742,-0.47852 z m 0.20313,0.25391 h 2.15429 l -0.0156,0.0684 h -1.01563 l -0.58398,2.52734 h -0.12305 l 0.58594,-2.52734 h -1.01758 z"
           id="path7365" /></g><g
         id="path7138"><path
           style="color:#000000;-inkscape-font-specification:'Montserrat Italic';stroke:none;-inkscape-stroke:none"
           d="m -101.20094,687.06681 q 0,0.37127 -0.11291,0.71574 -0.111,0.34448 -0.32342,0.60666 -0.21817,0.26984 -0.52437,0.42485 -0.3062,0.1531 -0.69086,0.1531 -0.50906,0 -0.79612,-0.27749 -0.28706,-0.27941 -0.28706,-0.79229 0,-0.3904 0.11482,-0.72914 0.11483,-0.33873 0.33108,-0.60474 0.21051,-0.25644 0.52054,-0.40954 0.31194,-0.15502 0.68321,-0.15502 0.50714,0 0.79612,0.2775 0.28897,0.27558 0.28897,0.79037 z m -0.72531,1.13294 q 0.16076,-0.21817 0.24305,-0.48609 0.0823,-0.26984 0.0823,-0.59326 0,-0.3904 -0.19712,-0.599 -0.1952,-0.21052 -0.54733,-0.21052 -0.27366,0 -0.49374,0.12631 -0.22009,0.1244 -0.37893,0.33873 -0.1531,0.21052 -0.23539,0.48992 -0.0823,0.2775 -0.0823,0.57221 0,0.39423 0.1952,0.60666 0.19712,0.21051 0.55116,0.21051 0.26984,0 0.48992,-0.12439 0.222,-0.12439 0.37318,-0.33108 z"
           id="path7369" /><path
           style="color:#000000;-inkscape-font-specification:'Montserrat Italic';fill:#ffffff;stroke:none;-inkscape-stroke:none"
           d="m -102.28516,685.87109 c -0.26519,0 -0.51429,0.0576 -0.74023,0.16993 -0.2217,0.10947 -0.41062,0.25639 -0.5625,0.4414 -0.15387,0.18928 -0.27243,0.40533 -0.35352,0.64453 -0.0813,0.23988 -0.12109,0.49682 -0.12109,0.76953 0,0.36562 0.10697,0.67141 0.32617,0.88477 0.21835,0.21107 0.52232,0.3125 0.88477,0.3125 0.27329,0 0.52293,-0.0544 0.74609,-0.16602 h 0.002 c 0.21979,-0.11126 0.40822,-0.26574 0.56446,-0.45898 0.15193,-0.18752 0.26733,-0.40327 0.3457,-0.64648 0.0795,-0.24248 0.11914,-0.49548 0.11914,-0.75586 0,-0.36625 -0.10777,-0.66993 -0.32812,-0.88086 -0.21943,-0.21071 -0.52156,-0.31446 -0.88282,-0.31446 z m 0,0.25391 c 0.31493,0 0.54115,0.0829 0.70703,0.24219 v 0.002 c 0.16407,0.15646 0.25,0.37784 0.25,0.69727 0,0.23464 -0.0344,0.45896 -0.10546,0.67578 l -0.002,0.002 c -0.0696,0.2161 -0.16948,0.4024 -0.30078,0.56445 -0.13466,0.16655 -0.29394,0.29716 -0.48242,0.39258 -0.18511,0.0926 -0.39322,0.13867 -0.63281,0.13867 -0.3163,0 -0.54459,-0.0833 -0.70899,-0.24218 -0.16275,-0.15911 -0.24804,-0.38374 -0.24804,-0.70118 0,-0.24781 0.0356,-0.47572 0.10742,-0.6875 0.072,-0.21243 0.17608,-0.39904 0.31054,-0.56445 0.12863,-0.15635 0.28733,-0.28254 0.47852,-0.37695 0.18998,-0.0944 0.39712,-0.14258 0.62695,-0.14258 z m -0.0605,0.0586 c -0.20198,0 -0.39021,0.0471 -0.55664,0.14258 -0.16254,0.0919 -0.30237,0.21901 -0.41797,0.375 -0.11142,0.15321 -0.19741,0.33085 -0.25586,0.5293 h 0.002 c -0.0584,0.19675 -0.0879,0.39913 -0.0879,0.60742 0,0.28378 0.0719,0.52292 0.22852,0.69336 0.15734,0.16803 0.38333,0.25 0.64453,0.25 0.19941,0 0.38666,-0.0468 0.55273,-0.14063 0.16239,-0.0914 0.30156,-0.21408 0.41211,-0.36523 0.11576,-0.1571 0.20289,-0.33384 0.26172,-0.52539 0.059,-0.19344 0.0879,-0.40252 0.0879,-0.62891 0,-0.28092 -0.0727,-0.51781 -0.23047,-0.68554 -0.15602,-0.16827 -0.38056,-0.25196 -0.64062,-0.25196 z m 0,0.25391 c 0.20944,0 0.35083,0.0575 0.45507,0.16992 v 0.002 c 0.10425,0.11033 0.16211,0.27283 0.16211,0.51172 0,0.20484 -0.0254,0.38834 -0.0762,0.55469 -0.0509,0.16567 -0.12602,0.31543 -0.22461,0.44922 -0.0905,0.12368 -0.19947,0.22065 -0.33203,0.29492 -0.12736,0.072 -0.26735,0.10742 -0.42773,0.10742 -0.20978,0 -0.35172,-0.0564 -0.45703,-0.16797 v -0.002 c -0.10299,-0.11277 -0.16211,-0.2785 -0.16211,-0.51953 0,-0.18465 0.0248,-0.36191 0.0762,-0.53516 v -0.002 c 0.0513,-0.17408 0.12408,-0.32173 0.2168,-0.44922 0.0962,-0.12978 0.20697,-0.23069 0.33789,-0.30469 h 0.002 c 0.12701,-0.0729 0.26679,-0.10937 0.42969,-0.10937 z"
           id="path7371" /></g><g
         id="path7140"><path
           style="color:#000000;-inkscape-font-specification:'Montserrat Italic';stroke:none;-inkscape-stroke:none"
           d="m -98.795361,688.90784 h -0.451644 l -0.778895,-2.54911 -0.58943,2.54911 h -0.35787 l 0.65833,-2.84957 h 0.570291 l 0.711913,2.32711 0.537763,-2.32711 h 0.35787 z"
           id="path7375" /><path
           style="color:#000000;-inkscape-font-specification:'Montserrat Italic';fill:#ffffff;stroke:none;-inkscape-stroke:none"
           d="m -100.04297,685.86914 -0.0137,0.0625 h -0.35938 l -0.71679,3.10352 h 0.61914 l 0.5039,-2.1875 0.667973,2.1875 h 0.646485 l 0.02344,-0.0996 0.695313,-3.00391 h -0.619141 l -0.455078,1.96484 -0.59961,-1.96484 h -0.373052 z m -0.16992,0.31641 h 0.0977 l -0.60157,2.5957 h -0.0976 z m 0.267578,0 h 0.107421 l 0.792969,2.5957 h -0.107422 z m 1.550781,0 h 0.09766 l -0.599609,2.5957 h -0.09766 z"
           id="path7377" /></g></g><g
       id="path2629-3"><path
         style="color:#000000;fill:#c64600;-inkscape-stroke:none"
         d="m -152.51367,603.46289 c -6.17278,-0.0127 -12.3576,1.86661 -17.37305,5.52539 -3.93113,2.86777 -7.08371,6.66879 -9.59375,10.78711 l 0.5586,0.33984 c 2.47641,-4.06315 5.5786,-7.79594 9.42187,-10.59961 4.89469,-3.57068 10.94529,-5.41086 16.98438,-5.39843 8.20865,0.0169 16.19517,2.60813 23.63281,5.99218 l 0.27148,-0.5957 c -7.48363,-3.40498 -15.55706,-6.0336 -23.90234,-6.05078 z"
         id="path7683" /><g
         id="g7675"><path
           style="color:#000000;fill:#c64600;stroke-linecap:round;-inkscape-stroke:none"
           d="m -180.01758,617.07031 a 0.32699999,0.32699999 0 0 0 -0.24023,0.39649 l 0.73047,3.01367 3.01562,-0.73242 a 0.32699999,0.32699999 0 0 0 0.24024,-0.39453 0.32699999,0.32699999 0 0 0 -0.39454,-0.24024 l -2.3789,0.57617 -0.57813,-2.37695 a 0.32699999,0.32699999 0 0 0 -0.39453,-0.24219 z"
           id="path7677" /></g></g><g
       id="path2629-1-7"><path
         style="color:#000000;fill:#c64600;-inkscape-stroke:none"
         d="m -132.17969,692.82227 c -2.52473,4.09932 -7.0311,6.52805 -11.43554,8.29492 -10.26191,4.11662 -21.33715,5.94319 -32.34766,6.51172 -10.68969,0.55195 -21.63874,0.48359 -31.88867,-2.63086 -4.61645,-1.40272 -9.52367,-3.26253 -12.33594,-7.2461 -0.83016,-1.17591 -1.38839,-2.54528 -1.5625,-3.96875 l -0.65039,0.0801 c 0.18843,1.54059 0.79146,3.00746 1.67969,4.26563 2.96272,4.19669 8.03384,6.08249 12.67968,7.49414 10.37118,3.15129 21.39598,3.21344 32.11133,2.66015 11.06002,-0.57108 22.20788,-2.4083 32.5586,-6.56054 4.45297,-1.78634 9.10222,-4.26265 11.74804,-8.5586 z"
         id="path7671" /><g
         id="g7663"><path
           style="color:#000000;fill:#c64600;stroke-linecap:round;-inkscape-stroke:none"
           d="m -222.15234,693.20117 -1.91016,2.44336 a 0.32699999,0.32699999 0 0 0 0.0566,0.45899 0.32699999,0.32699999 0 0 0 0.45899,-0.0566 l 1.50781,-1.92773 1.92773,1.50781 a 0.32699999,0.32699999 0 0 0 0.45899,-0.0566 0.32699999,0.32699999 0 0 0 -0.0566,-0.45898 z"
           id="path7665" /></g></g><g
       id="path2629-9-3"><path
         style="color:#000000;fill:#c64600;-inkscape-stroke:none"
         d="m -242.69531,642.29102 -0.54297,0.36523 c 0.86365,1.28055 2.04728,2.28965 3.30664,3.11328 5.40517,3.53505 11.96953,4.48339 18.14062,5.54492 19.39975,3.3371 39.18795,2.77834 58.66602,4.88672 7.66464,0.82965 15.45873,1.82393 22.54688,4.88672 l 0.25976,-0.59961 c -7.20088,-3.1115 -15.06153,-4.10696 -22.73437,-4.9375 -19.53734,-2.11479 -39.31259,-1.55845 -58.62696,-4.88086 -6.18253,-1.0635 -12.64815,-2.01607 -17.89453,-5.44726 -1.21154,-0.79237 -2.32357,-1.74915 -3.12109,-2.93164 z"
         id="path7659" /><g
         id="g7651"><path
           style="color:#000000;fill:#c64600;stroke-linecap:round;-inkscape-stroke:none"
           d="M -243.31641,641.95508 -243.9082,645 a 0.32699999,0.32699999 0 0 0 0.25781,0.38281 0.32699999,0.32699999 0 0 0 0.38281,-0.25781 l 0.4668,-2.40234 2.4043,0.46679 a 0.32699999,0.32699999 0 0 0 0.38281,-0.25976 0.32699999,0.32699999 0 0 0 -0.25781,-0.38282 z"
           id="path7653" /></g></g><path
       id="rect4435-2"
       style="fill:none;stroke-width:0.654"
       d="m -338.07797,586.55316 h 81.2277 v 28.80542 h -81.2277 z"
       inkscape:export-filename="..\..\..\..\Desktop\rect4435-2.png"
       inkscape:export-xdpi="96"
       inkscape:export-ydpi="96" /></g></svg>
